<svg xmlns="http://www.w3.org/2000/svg" width="210mm" height="81.49mm" viewBox="0 0 595.28 231"><title>institut_logo</title><polygon points="508.29 41.98 508.29 45.57 515.72 45.57 515.72 73.4 519.62 73.4 519.62 45.57 527.07 45.57 527.07 41.98 508.29 41.98 508.29 41.98" fill="#252c2b" fill-rule="evenodd"/><polygon points="482.07 41.98 463.29 41.98 463.29 45.57 470.74 45.57 470.74 73.4 474.64 73.4 474.64 45.57 482.07 45.57 482.07 41.98 482.07 41.98" fill="#252c2b" fill-rule="evenodd"/><polygon points="453.88 73.4 457.79 73.4 457.79 41.98 453.88 41.98 453.88 73.4 453.88 73.4" fill="#252c2b" fill-rule="evenodd"/><path d="M439,54.82l-2.24-.88c-2-.75-4.36-2-4.36-4.5,0-2.75,2.74-4.45,5.23-4.45a5.35,5.35,0,0,1,5,2.95l3.12-1.87a8.92,8.92,0,0,0-8.06-4.75c-4.74,0-9.23,3-9.23,8.12,0,4.38,3.24,6.42,6.81,8l2.17.92c2.7,1.12,5.4,2.58,5.4,5.95a5.93,5.93,0,1,1-11.85.17l-4,.84a9.78,9.78,0,0,0,9.69,8.78,9.67,9.67,0,0,0,10-9.79c0-5.25-3.33-7.7-7.78-9.45Z" fill="#252c2b" fill-rule="evenodd"/><polygon points="396.1 69.82 383.18 69.82 383.18 57.94 395.73 57.94 395.73 54.36 383.18 54.36 383.18 45.57 396.1 45.57 396.1 41.98 379.28 41.98 379.28 73.4 396.1 73.4 396.1 69.82 396.1 69.82" fill="#252c2b" fill-rule="evenodd"/><polygon points="375.22 41.98 370.94 41.98 361.62 65.23 352.29 41.98 348 41.98 361.62 75.07 375.22 41.98 375.22 41.98" fill="#252c2b" fill-rule="evenodd"/><polygon points="340.02 73.4 343.92 73.4 343.92 41.98 340.02 41.98 340.02 73.4 340.02 73.4" fill="#252c2b" fill-rule="evenodd"/><polygon points="307.96 49.99 331.47 74.69 331.47 41.98 327.57 41.98 327.57 65.19 304.04 40.48 304.04 73.4 307.96 73.4 307.96 49.99 307.96 49.99" fill="#252c2b" fill-rule="evenodd"/><path d="M285.5,74.07c7.19,0,11.47-5.3,11.47-12.21V42h-3.9V60.53c0,5.12-1.54,9.87-7.57,9.87s-7.56-4.75-7.56-9.87V42H274V61.86c0,6.91,4.28,12.21,11.47,12.21Z" fill="#252c2b" fill-rule="evenodd"/><path d="M421.5,50.94a8.7,8.7,0,0,0-4.11-7.5C414.9,42,411.9,42,409.12,42h-4.74V73.4h3.91V60.11h1.62l9.22,13.29h4.74L414,59.74a8.56,8.56,0,0,0,7.52-8.8Zm-12,5.92h-1.24V45.49h1c3.86,0,8.52.7,8.52,5.62s-4.32,5.75-8.32,5.75Z" fill="#252c2b" fill-rule="evenodd"/><path d="M501.32,46.77a2.52,2.52,0,1,0-2.54-2.54,2.51,2.51,0,0,0,2.54,2.54Z" fill="#252c2b" fill-rule="evenodd"/><path d="M480.2,73.4h4.2L488,65.52h14.38l3.58,7.88h4.19l-15-32.75-15,32.75Zm9.39-11.46,5.57-12.71,5.57,12.71Z" fill="#252c2b" fill-rule="evenodd"/><path d="M489,46.77a2.52,2.52,0,1,0-2.49-2.54A2.52,2.52,0,0,0,489,46.77Z" fill="#252c2b" fill-rule="evenodd"/><polygon points="277.93 88.46 274.03 88.46 274.03 119.87 287.44 119.87 287.44 116.29 277.93 116.29 277.93 88.46 277.93 88.46" fill="#252c2b" fill-rule="evenodd"/><path d="M401.5,107.62h8.11c-.17,5.13-5.4,9.33-10.27,9.33-6.77,0-12.17-6.24-12.17-12.83a12.35,12.35,0,0,1,22.36-7.62l2.74-2.63a16.31,16.31,0,0,0-29,10.38c0,8.7,7.07,16.29,15.83,16.29s14.84-6.63,14.84-15.25V104H401.5v3.58Z" fill="#252c2b" fill-rule="evenodd"/><polygon points="373.86 119.87 377.76 119.87 377.76 88.46 373.86 88.46 373.86 119.87 373.86 119.87" fill="#252c2b" fill-rule="evenodd"/><polygon points="348.51 88.81 348.51 92.39 362.14 92.39 346.27 120.22 368.51 120.22 368.51 116.64 352.62 116.64 368.51 88.81 348.51 88.81 348.51 88.81" fill="#252c2b" fill-rule="evenodd"/><polygon points="315.78 119.87 319.69 119.87 319.69 88.46 315.78 88.46 315.78 119.87 315.78 119.87" fill="#252c2b" fill-rule="evenodd"/><polygon points="291.35 119.87 308.19 119.87 308.19 116.29 295.26 116.29 295.26 104.42 307.8 104.42 307.8 100.83 295.26 100.83 295.26 92.04 308.19 92.04 308.19 88.46 291.35 88.46 291.35 119.87 291.35 119.87" fill="#252c2b" fill-rule="evenodd"/><path d="M332.85,88.46h-4.49v31.41h3.9V106.7h2.25c5.94,0,11-2.54,11-9.16,0-5.75-3-9.08-12.63-9.08Zm.66,14.74h-1.25V92h1.05c3.86,0,8.51.58,8.51,5.5s-4.32,5.74-8.31,5.74Z" fill="#252c2b" fill-rule="evenodd"/><polygon points="250.57 161.02 251.49 161.02 251.49 0 250.57 0 250.57 161.02 250.57 161.02" fill="#252c2b" fill-rule="evenodd"/><path d="M147.51,0A80.51,80.51,0,1,0,228,80.51,80.61,80.61,0,0,0,147.51,0Zm0,160.09a79.58,79.58,0,1,1,79.58-79.58,79.67,79.67,0,0,1-79.58,79.58Z" fill="#252c2b" fill-rule="evenodd"/><path d="M127.75,56.72l.33.14.21.08c.15,0,.21-.18.28-.33s.43-.72.74-1.28a.81.81,0,0,1,1-.5c.18.05.51.17.76.27a.31.31,0,0,1,.05-.1.56.56,0,0,0,.1-.15l0-.08a1.83,1.83,0,0,0,.08-.25.43.43,0,0,0-.23-.31l-.31-.11a1.67,1.67,0,0,0-2.19.77c-.23.43-.71,1-.85,1.33s-.16.4,0,.52Z" fill="#252c2b" fill-rule="evenodd"/><path d="M127.27,54.76a.53.53,0,0,0,.52-.25.8.8,0,0,0-.12-.45.56.56,0,0,0-.33-.24.59.59,0,0,0-.36,0s-.3.1-.37.23,0,.33.13.45a.88.88,0,0,0,.53.25Z" fill="#252c2b" fill-rule="evenodd"/><path d="M127.13,57.47a.33.33,0,0,0-.41.05.61.61,0,0,0-.11.35c0,.21,0,.58.89.79.34.09.53,0,.64-.27.24-.6-.57-.6-1-.92Z" fill="#252c2b" fill-rule="evenodd"/><path d="M167.88,55.34a.64.64,0,0,0,.6-.39c0-.13-.13-.42-.2-.53a.69.69,0,0,0-.45-.25.74.74,0,0,0-.45.06s-.35.17-.42.34.08.4.23.54a1.13,1.13,0,0,0,.69.23Z" fill="#252c2b" fill-rule="evenodd"/><path d="M176.28,75.9a.46.46,0,0,0,.43-.28c0-.1-.09-.31-.14-.38a.54.54,0,0,0-.33-.18.5.5,0,0,0-.32,0s-.25.12-.3.24.06.3.16.4a.89.89,0,0,0,.5.16Z" fill="#252c2b" fill-rule="evenodd"/><path d="M163.46,54.2a.76.76,0,0,0-.51-.07.78.78,0,0,0-.4.2,1.17,1.17,0,0,0-.27.47c0,.18.21.35.39.43a1.22,1.22,0,0,0,.73,0,.65.65,0,0,0,.43-.57c0-.14-.27-.36-.37-.44Z" fill="#252c2b" fill-rule="evenodd"/><path d="M130.8,55.81a.59.59,0,0,0-.36,0s-.28.14-.34.27a.48.48,0,0,0,.18.44,1,1,0,0,0,.56.19.52.52,0,0,0,.48-.32c0-.11-.1-.34-.16-.43a.54.54,0,0,0-.36-.2Z" fill="#252c2b" fill-rule="evenodd"/><path d="M96.82,121.06l-2.88.64-2.37-3.33,1.55-2.49-.68-1-5.65,9.32L97.5,122l-.68-1Zm-8,1.76L91,119.29l1.88,2.63-4.07.9Z" fill="#252c2b" fill-rule="evenodd"/><polygon points="89.33 109.02 88.46 109.48 89.68 111.82 82.1 115.81 82.6 116.75 91.05 112.3 89.33 109.02 89.33 109.02" fill="#252c2b" fill-rule="evenodd"/><polygon points="88.32 107.28 87.96 106.25 81.45 107.21 81.44 107.19 86.92 102.04 79.43 101.38 79.42 101.36 85.12 98.07 84.77 97.05 75.86 102.19 84.58 102.85 78.14 108.76 88.32 107.28 88.32 107.28" fill="#252c2b" fill-rule="evenodd"/><path d="M84.17,93.76,81.31,93l-.61-4,2.51-1.52L83,86.31l-9.26,5.75,10.56,2.86-.17-1.15Zm-7.93-2.05,3.55-2.15.48,3.19-4-1Z" fill="#252c2b" fill-rule="evenodd"/><polygon points="82.73 81.4 82.81 80.31 76.46 78.6 76.46 78.57 83.53 76.03 76.92 72.44 76.93 72.42 83.47 71.68 83.55 70.59 73.33 71.76 81.07 75.85 72.8 78.7 82.73 81.4 82.73 81.4" fill="#252c2b" fill-rule="evenodd"/><path d="M84.06,68.56,81.7,66.79l1-4,2.9-.44.29-1.14L75.11,63l8.67,6.68.28-1.13Zm-3.21-2.43-3.33-2.5,4.1-.64-.77,3.14Z" fill="#252c2b" fill-rule="evenodd"/><polygon points="79.15 54.92 87.14 58.03 87.52 57.04 79.54 53.93 80.39 51.76 79.47 51.39 77.39 56.71 78.31 57.07 79.15 54.92 79.15 54.92" fill="#252c2b" fill-rule="evenodd"/><polygon points="92.05 47.79 91.19 47.31 89.32 50.73 86.03 48.93 87.84 45.61 86.97 45.14 85.16 48.45 82.67 47.09 84.54 43.67 83.67 43.2 81.29 47.55 89.67 52.14 92.05 47.79 92.05 47.79" fill="#252c2b" fill-rule="evenodd"/><path d="M94.84,43.62l-3.4-2.46.15-.22,5.1.12L97.45,40l-5.24,0a2.5,2.5,0,0,0-.74-3.48,2.1,2.1,0,0,0-2.35-.38,5.89,5.89,0,0,0-1.85,1.66l-.8,1.13,7.75,5.59.62-.86Zm-4-3.28h0l-.19.27-2.79-2,.19-.26a5,5,0,0,1,1.21-1.22c.44-.29,1-.2,1.61.26s.84.91.71,1.43a4.09,4.09,0,0,1-.71,1.51s0,0,0,0Z" fill="#252c2b" fill-rule="evenodd"/><polygon points="201.21 44.97 202 44.39 200.47 42.25 207.4 37.23 206.78 36.37 199.04 41.97 201.21 44.97 201.21 44.97" fill="#252c2b" fill-rule="evenodd"/><polygon points="203.77 49.24 212.06 44.48 211.53 43.55 203.24 48.31 203.77 49.24 203.77 49.24" fill="#252c2b" fill-rule="evenodd"/><path d="M206.61,54.86l3.86-1.62.3.71a.94.94,0,0,0,.06.15s0,.09,0,.14a5.42,5.42,0,0,0,.54.89,2.24,2.24,0,0,0,.81.68,2.38,2.38,0,0,0,1.06.27,3.37,3.37,0,0,0,1.09-.18l0,0h.05a2.94,2.94,0,0,0,1-.73,2.36,2.36,0,0,0,.57-1.11,2.43,2.43,0,0,0,0-1,5.87,5.87,0,0,0-.3-1l-.07-.16-.06-.17L215,50.19l-8.81,3.69.41,1Zm7.9-3.32.15.37v0a5,5,0,0,1,.41,1.66c0,.54-.3,1-1,1.25a1.41,1.41,0,0,1-1.52-.06,3.09,3.09,0,0,1-.91-1.28l-.27-.66,3.13-1.31Z" fill="#252c2b" fill-rule="evenodd"/><path d="M215.06,61.37a6.09,6.09,0,0,0-.49,1.63l-.11.63a.07.07,0,0,1,0,0v0a6.43,6.43,0,0,1-.36,1.29,1.38,1.38,0,0,1-1,.79,1.69,1.69,0,0,1-1.45-.24,2,2,0,0,1-.85-1.19A1.74,1.74,0,0,1,211,63a2.11,2.11,0,0,1,1.07-.92l-.56-.93A3,3,0,0,0,210,62.59a3.13,3.13,0,0,0,1.19,3.9,2.77,2.77,0,0,0,2.25.33,2.11,2.11,0,0,0,1.48-1.08,6.93,6.93,0,0,0,.56-1.82l.09-.68c0-.06,0-.13,0-.2a1.43,1.43,0,0,1,0-.22A3.12,3.12,0,0,1,216,62a1.06,1.06,0,0,1,.69-.54,1.37,1.37,0,0,1,1.15.2,1.62,1.62,0,0,1,.68,1,1.68,1.68,0,0,1,0,1,2.57,2.57,0,0,1-.57.83l.74.68a2.73,2.73,0,0,0,.8-2.76,2.8,2.8,0,0,0-1.1-1.64,2.22,2.22,0,0,0-1.93-.34,1.91,1.91,0,0,0-1.33,1Z" fill="#252c2b" fill-rule="evenodd"/><polygon points="218.63 65.12 218.61 65.11 218.61 65.12 218.63 65.12 218.63 65.12" fill="#252c2b" fill-rule="evenodd"/><polygon points="211.6 73.14 221.08 71.9 220.94 70.85 211.46 72.08 211.6 73.14 211.6 73.14" fill="#252c2b" fill-rule="evenodd"/><polygon points="212.1 83.06 213.09 83.06 213.05 79.17 216.81 79.14 216.83 82.92 217.82 82.91 217.8 79.13 220.64 79.11 220.66 83 221.65 83 221.61 78.04 212.06 78.11 212.1 83.06 212.1 83.06" fill="#252c2b" fill-rule="evenodd"/><polygon points="211.76 88.61 211.57 89.66 218.82 91.01 209.79 96.91 219.6 98.74 219.8 97.69 212.52 96.34 221.56 90.44 211.76 88.61 211.76 88.61" fill="#252c2b" fill-rule="evenodd"/><path d="M215.59,104.07a1.91,1.91,0,0,0-1.66,0,5.88,5.88,0,0,0-1.35,1.05l-.46.45,0,0,0,0a7.09,7.09,0,0,1-1,.84,1.4,1.4,0,0,1-1.3.06,1.71,1.71,0,0,1-1-1,2,2,0,0,1,0-1.47,1.72,1.72,0,0,1,.94-1,2.07,2.07,0,0,1,1.41-.13l.08-1.09a3.11,3.11,0,0,0-2,.33,3.11,3.11,0,0,0-1.29,3.87,2.76,2.76,0,0,0,1.65,1.57,2.14,2.14,0,0,0,1.84,0,7.39,7.39,0,0,0,1.5-1.16l.47-.5.14-.15.17-.16a3.52,3.52,0,0,1,.74-.52,1,1,0,0,1,.88,0,1.34,1.34,0,0,1,.83.83,1.6,1.6,0,0,1,0,1.18,1.68,1.68,0,0,1-.6.83,2.63,2.63,0,0,1-.94.35l.2,1a2.65,2.65,0,0,0,1.38-.56,2.73,2.73,0,0,0,.88-1.22,2.93,2.93,0,0,0,.05-2,2.16,2.16,0,0,0-1.37-1.38Z" fill="#252c2b" fill-rule="evenodd"/><polygon points="213.12 115.43 213.61 114.49 205.12 110.09 204.63 111.04 213.12 115.43 213.12 115.43" fill="#252c2b" fill-rule="evenodd"/><polygon points="206.52 123.66 206.52 123.66 206.5 123.66 206.52 123.66 206.52 123.66" fill="#252c2b" fill-rule="evenodd"/><path d="M208.59,118.86a1.88,1.88,0,0,0-1.63-.35,6.13,6.13,0,0,0-1.55.71l-.55.34,0,0,0,0a6.05,6.05,0,0,1-1.2.59,1.4,1.4,0,0,1-1.28-.24,1.69,1.69,0,0,1-.78-1.24,2,2,0,0,1,.33-1.43,1.73,1.73,0,0,1,1.15-.78,2.13,2.13,0,0,1,1.4.19l.33-1a3.07,3.07,0,0,0-2.06-.15,3.13,3.13,0,0,0-2.13,3.48,2.81,2.81,0,0,0,1.25,1.9,2.07,2.07,0,0,0,1.8.39,6.42,6.42,0,0,0,1.72-.79l.57-.38.18-.11.19-.11a3.15,3.15,0,0,1,.85-.34,1,1,0,0,1,.86.16,1.31,1.31,0,0,1,.62,1,1.62,1.62,0,0,1-.27,1.15,1.68,1.68,0,0,1-.78.67,2.41,2.41,0,0,1-1,.13l0,1a2.79,2.79,0,0,0,1.47-.24,2.66,2.66,0,0,0,1.12-1,2.8,2.8,0,0,0,.5-1.92,2.17,2.17,0,0,0-1-1.65Z" fill="#252c2b" fill-rule="evenodd"/><path d="M98,32.39a.77.77,0,0,0,.78-.77.78.78,0,0,0-.78-.78.77.77,0,0,0-.77.78.76.76,0,0,0,.77.77Z" fill="#252c2b" fill-rule="evenodd"/><path d="M196.49,30.85a.78.78,0,1,0,.78.78.78.78,0,0,0-.78-.78Z" fill="#252c2b" fill-rule="evenodd"/><path d="M98.23,128.82a.78.78,0,1,0,0,1.55.78.78,0,0,0,0-1.55Z" fill="#252c2b" fill-rule="evenodd"/><path d="M197.25,128.55a.77.77,0,0,0-.77.78.76.76,0,0,0,.77.77.77.77,0,0,0,.78-.77.78.78,0,0,0-.78-.78Z" fill="#252c2b" fill-rule="evenodd"/><path d="M147.52,3.14a77.34,77.34,0,0,0-42.16,142.2l.4.25A77.35,77.35,0,1,0,147.52,3.14Zm.09,4.73h1.72V6.94h-1.72V4.6c4.76.11,9,2.22,10.68,5.29H147.61v-2Zm12.63,3v1.55H134.11V10.82Zm25.21,31.09V31.56a62.12,62.12,0,0,1,24,57.37H203s0-6.71-.06-11.52l3.55,3.3.69-.74-4.28-4c0-2,0-6.32,0-6.32a.62.62,0,0,0,.57.38.61.61,0,1,0-.57-.84V67.61a.62.62,0,0,0,.57.38.61.61,0,1,0-.57-.84V65.54a.61.61,0,1,0,0-.46v-.69h-.22a.62.62,0,1,0-.57,0h-.22V65a.61.61,0,1,0,0,.58v1.49a.61.61,0,1,0,0,.58v1.49a.61.61,0,1,0,0,.58v6h-5.33c0-.12-.06-19.82-.06-19.82a.61.61,0,0,0,.56.38.62.62,0,1,0,0-1.23.61.61,0,0,0-.56.38v-1.6a.61.61,0,0,0,.56.38.62.62,0,0,0,.62-.62.61.61,0,0,0-1.18-.23v-1.6a.61.61,0,0,0,.56.38.62.62,0,0,0,.62-.62.61.61,0,0,0-1.18-.23v-.69h-.23a.6.6,0,0,0,.34-.53.62.62,0,0,0-.62-.62.61.61,0,0,0-.61.62.61.61,0,0,0,.33.53h-.22v.63a.61.61,0,0,0-1.15.29.61.61,0,0,0,1.15.29v1.49a.61.61,0,0,0-1.15.29.62.62,0,0,0,.62.62.6.6,0,0,0,.53-.33v1.49a.63.63,0,0,0-.53-.32.62.62,0,1,0,0,1.23.63.63,0,0,0,.53-.32V67c-1.91-8.66-6.73-15.15-10-17.48V42.85h2.6v-.94Zm-1,88a1.14,1.14,0,0,1-.19.19,1.39,1.39,0,0,1-.44.35,5.07,5.07,0,0,1-2.41.78c-.65.09-1.44-.56-1.85-1a5.29,5.29,0,0,0,.68-3.39c0-.24-.78-5.88-1.35-8.55-.48-2.24-.1-6,1.07-10.64.19-.73.36-1.57.51-2.51a63.29,63.29,0,0,0,.69-11.12,26.12,26.12,0,0,0-2.08-7.39l.39-.1c4.87,5.81,4.94,9.89,5,12.1l0,31.27Zm0,1.23V141h-2.29l0-8.87a5.32,5.32,0,0,0,2.33-.93ZM171,138.4s-.06-1.39-.15-2a8.37,8.37,0,0,0-.59-2.13,2,2,0,0,0,.53-.33,4.34,4.34,0,0,0,1-1.25c.24-.44.39-.71.86-.89a6.07,6.07,0,0,1,2,0l.15,0c-.54,1.27-1.81,4.38-1.77,5.6a3.48,3.48,0,0,0,.19,1h0c.1.23.64,1.35.84,1.68a18.78,18.78,0,0,1,1.1,2.13,1.19,1.19,0,0,1,0,1.1,2.68,2.68,0,0,1-1.65,1,5.36,5.36,0,0,1-2.32-.18c-.23-.17-.18-1.31-.16-1.86s0-3.64,0-3.87ZM139.1,148.89l2.22-3.3h.49v3.3Zm2.71.87v1.56c-1.12-.1-2.11-.14-2.85-.16a14.06,14.06,0,0,0-4.54.49v-6.06h5.78l-2.79,4.16ZM116,144.66V141h-2.78v-1.87h4.51v0l0,0H122a7.44,7.44,0,0,0-.95,1.73c-.2.67-.14,1.63,1.3,2.4a2.21,2.21,0,0,0,1.06.22,4.06,4.06,0,0,0,2.92-1.15,6.13,6.13,0,0,0,.27-3.14h1.87a1.69,1.69,0,0,0,1,1l.11,0a3,3,0,0,0,1.08.27c.56,0,1.14-.3,2-1.12a3.59,3.59,0,0,0,1.13,1.39,5,5,0,0,1,.93,1c.6.74,1.28,1.57,2.17,1.57l.62,0,1,0c1.19,0,2.42-.16,2.65-1.13.38-1.58-1.28-2.27-2.26-2.68a5.43,5.43,0,0,1-.71-.33l0-.05h18.32a4.44,4.44,0,0,1-.94.72c-1.14.63-2.26,2-2.1,3.18.08.6.19,1.19.28,1.59Zm-3.72-29.46V141H109.9V50.53a19.63,19.63,0,0,0,5.28,1.66,11.2,11.2,0,0,0-.07,1.3,12.07,12.07,0,0,0,2.54,7.44A19.42,19.42,0,0,0,112.34,66c-1.09,1.47-1.22,7.24-1.22,7.3a24.85,24.85,0,0,0,.89,5.91,8.33,8.33,0,0,1,.09,3.46c0,.4-.09.75-.09,1.06a17.54,17.54,0,0,1-.44,2.37,13.57,13.57,0,0,0-.45,2.62,6.1,6.1,0,0,0,1.12,3.13v18.38l-1,.38,1,4.55ZM109.9,23V21.82l10.28-5.62V31a23.46,23.46,0,0,0-4.67-4.42V22.89h-1v3.74a54.34,54.34,0,0,0-4.65,3.72V23.89h2.23V23Zm5.16,4.38c1.51,1.1,5,4,5.12,6v8.59H109.9V31.55a52.63,52.63,0,0,1,5.16-4.21Zm6.31,15.5a12.37,12.37,0,0,0-3.89,3.45A27.8,27.8,0,0,1,109.92,44l0,0V42.84ZM135.43,23V13.3H159V23h-2v.93h2v18h-1.45c-.69-5.18-8.7-17.57-9.85-19.33v-4.7H146.6V22.6c-1.22,1.84-9,13.68-9.64,19.31h-1.53v-18h2V23Zm25.76,19.88a12.32,12.32,0,0,0-5,5.23,28.24,28.24,0,0,1-8.13-2.24,3,3,0,0,0,.67-.53,2.05,2.05,0,0,0,.17-2.46Zm-1.12-.93V32.33c0-1.42,4.72-4.7,5.55-5.3,1.41,1,4.69,3.83,5,5.72v9.06a12.13,12.13,0,0,0-7.28.1Zm-.52,16.9a3.72,3.72,0,0,1-.74-1.88,3,3,0,0,1,.59-1.59,2.76,2.76,0,0,0,.59-1.8c-.1-1.18.23-4,1.89-4.65a2.35,2.35,0,0,1,2.72.21,3.44,3.44,0,0,0-1.71.64,4.3,4.3,0,0,0-1.7,2.7,31.39,31.39,0,0,0-.31,4.23,7.81,7.81,0,0,0,.72,2.67h0a3,3,0,0,1,.33,1.12,27.36,27.36,0,0,1,.12,3,9.85,9.85,0,0,1-2.37.41c-.35,0-.71,0-.9,0a2,2,0,0,1-.33,0c-.79-.15-1.42-.32-1.86-.44-.15-.52-.25-1.31.06-1.46a1.9,1.9,0,0,1,.93.05,2.08,2.08,0,0,0,2.44-.73c.53-.77,0-1.61-.46-2.42Zm15,2a2.92,2.92,0,0,0,.83.12,4.17,4.17,0,0,0,.89-.11,10.14,10.14,0,0,1,2.06,3.58,10.28,10.28,0,0,1-1.83-1.09,5.71,5.71,0,0,0-5.8-.67c0-.07,0-.15,0-.2a10.38,10.38,0,0,0-.23-1.3,1.55,1.55,0,0,0-.1-.4c0-.09,0-.14,0-.15h0a2.79,2.79,0,0,1-.07-1.54,18.83,18.83,0,0,0,.1-5.35c-.08-.87-.69-3.05-2-3.86a5,5,0,0,0-1.45-.6,3.19,3.19,0,0,1,2.51-.74,2.48,2.48,0,0,1,1.67,1.07,5.07,5.07,0,0,1,1,3.72l-.06.31c-.36,1.79-1.19,6,2.47,7.21Zm4.7-8.5a17.83,17.83,0,0,0,5.28-1.75V74.65c-.09-.15-.17-.3-.27-.46l-.13-.22a6.15,6.15,0,0,0-.56-.68c-1.06-1.2-3.56-4-4-7.69a10.31,10.31,0,0,0-2.4-5.18,12.07,12.07,0,0,0,2.16-6.93,11.37,11.37,0,0,0-.06-1.18Zm-.14-1a12.18,12.18,0,0,0-1.52-4,30.7,30.7,0,0,0,6.94-2.08v4.21a16.3,16.3,0,0,1-5.42,1.9ZM151.56,93.93a16.25,16.25,0,0,1-1.35-3c-.93-2.93,3.86-5.36,5.91-6.39l.76-.4c1.66-.9,3.71-2,6.17-1.45.33.07.78.17,1.29.25a19.51,19.51,0,0,1-2.2,4.95A29.82,29.82,0,0,1,157.6,93a10.38,10.38,0,0,0-3.06,4.69c-.3,1-1.11,3.81-2.25,5,.11-1.17.23-2.42.37-3.74a7.09,7.09,0,0,0-1.1-5Zm-.32,22.31a33.54,33.54,0,0,0,2.67,3,20.62,20.62,0,0,0-2,6.09c-.55,2.62-.41,4.46.42,5.63a4,4,0,0,0,3,1.44,9,9,0,0,0,2.71-.23,9.73,9.73,0,0,1,.54,2.57c0,.27,0,.51,0,.74a2.19,2.19,0,0,1-.57,2l-.34.4-.32.36H143.38a6.76,6.76,0,0,1-1.35,0c-.09,0-.89-.07-1.23-.05l-.1,0h-3c0-.24,0-.58-.06-1a23.32,23.32,0,0,0,5.11-1.13,2.49,2.49,0,0,0,1.53-1.48c.38-1.2-.42-2.5-.89-3.27a3.61,3.61,0,0,1-.23-.39h0l0,0c-.3-.58-.59-1.12-.75-1.54-.48-1.26-.45-5.62.26-8.7a8.7,8.7,0,0,1,1.93-3.75,10.47,10.47,0,0,0,1.52-2.35c.66-1.51.43-3.33,0-5.72l-.12-.69c-.34-2-.58-3.39-.12-4.91a4.14,4.14,0,0,1,.23-.51c.52-1,1.39-2.66.44-6.52a7.12,7.12,0,0,1,0-3.26,7.24,7.24,0,0,0-.09-3.93,8.81,8.81,0,0,1,.57-4.69,13.59,13.59,0,0,0,3,3.26,3.73,3.73,0,0,0-.77,3.56,16.42,16.42,0,0,0,1.41,3.16,6.23,6.23,0,0,1,1,4.46q-.23,2.06-.39,3.87c-.2,2.1-.37,3.91-.64,5.54-.37,2.2-.67,6.36.53,8Zm26.94-42.63c-.8-.82-2.54-.37-3.44,0s-2.35,1.3-2.22,2.24c.07.54.63.72,1.07.87a2.6,2.6,0,0,1,.54.2,1.58,1.58,0,0,1-.3,1.27,7,7,0,0,0-.59.69,4.23,4.23,0,1,1,5.77-.79,1.88,1.88,0,0,1-.65,0c-.1,0-.28-.1-.33-.2s.11-.7.28-1.15c.36-.91.86-2.18-.13-3.19Zm-5.08,7.46a6.21,6.21,0,0,1,1.37-2.18,2.45,2.45,0,0,0,.57-2.12c-.11-.57-.69-.76-1.16-.91-.16,0-.42-.13-.44-.09a3.45,3.45,0,0,1,1.67-1.28c1-.44,2.11-.54,2.4-.24.53.55.32,1.23-.06,2.21a2.4,2.4,0,0,0-.25,1.9,1.33,1.33,0,0,0,.89.68,2.81,2.81,0,0,0,1.12,0,2.79,2.79,0,0,1,3,1c.25.3,0,1.17-.17,1.86-.23.89-.46,1.73,0,2.28a1.82,1.82,0,0,0,.24.25c-.21.11-.49.26-.84.42-.7-.85-.79-1.17-1.5-1.5-.15-.07-.16-.35-.16-.71s0-.85-.43-1-1.2,0-2.25,1.49c-.33.48-1,.51-1.68.52,0-.11.1-.25.14-.34.22-.51.43-1,.08-1.31s-.81-.07-1,0a7.18,7.18,0,0,1-1.73.55c.12-.55.2-1.09.27-1.55Zm1.5,2c-.21.48-.38.93-.15,1.27a.62.62,0,0,0,.55.28h.24a2.88,2.88,0,0,0,2.55-.92,3.87,3.87,0,0,1,1-1.07v0a1.52,1.52,0,0,0,.7,1.56,4.32,4.32,0,0,1,1.08,1,11.74,11.74,0,0,1-4.15.9,15.25,15.25,0,0,1-5.11-.91l.41-.32a3.25,3.25,0,0,0,.82-1.28,11,11,0,0,0,2.06-.55Zm2.17,4a11,11,0,0,0,1.42-.15,25.58,25.58,0,0,1,2.08,7.22,62,62,0,0,1-.68,10.93c0,.11,0,.22-.05.33-5.36-1.27-8.25,1.41-11.32,4.25-2.12,2-4.31,4-7.5,4.9a12,12,0,0,0-5.5,3,8,8,0,0,1,3.56-4.23,8.45,8.45,0,0,0,2.65-3.18,12.8,12.8,0,0,1,1.6-2.31,50.92,50.92,0,0,1,3.81-3.72l.43-.38a21.44,21.44,0,0,0,3.84-4.12,35.75,35.75,0,0,0,4.77-9.27,29.28,29.28,0,0,0,.89-3.25ZM178,118.54c.56,2.63,1.33,8.43,1.34,8.5a4.25,4.25,0,0,1-.6,2.84,2.9,2.9,0,0,1-2,1.07,7.25,7.25,0,0,1-2-.07,7.42,7.42,0,0,0-2.33,0,2.5,2.5,0,0,0-1.44,1.33,3.32,3.32,0,0,1-.78,1l-.13.07c.19-1.43.7-5.21.84-6.39a20.42,20.42,0,0,0-2.26-12c-.78-1.47,0-3.92.16-4.43l.1-.09c3-2.79,5.62-5.21,10.52-4-.09.42-.18.82-.27,1.19-.85,3.36-1.73,8-1.08,11.06Zm3.1,13.64,0,6.21h-7a2.71,2.71,0,0,1-.24-1c0-1,1.21-4.11,1.81-5.49a6.37,6.37,0,0,0,1.13,0A4,4,0,0,0,179,131a3.93,3.93,0,0,0,2.14,1.19Zm-21.65,3.26c0-.21,0-.44,0-.68a10.24,10.24,0,0,0-.55-2.74,17.35,17.35,0,0,1,2.24-.28,8.35,8.35,0,0,1,2,.21l-.39.53a5.07,5.07,0,0,0-.83,4.77l.17.3a4.14,4.14,0,0,1,.72,2.28c-.09.7-1.62,1.27-2.42,1.41a8.8,8.8,0,0,0-2.71,1.18c-.89.52-2.33,1.4-3.13,1.89-.07-.38-.16-.87-.23-1.37-.1-.74.76-1.76,1.63-2.23a6.9,6.9,0,0,0,1.79-1.54h.05v-.06l.55-.63.34-.39a3.1,3.1,0,0,0,.8-2.65Zm3.27,1.4a4.2,4.2,0,0,1,.76-3.81l.59-.81a12.62,12.62,0,0,1,2.13,1l.25.13a7.07,7.07,0,0,0,2.79,1,7.51,7.51,0,0,1,.62,2.11c.07.54.15,1.31.17,1.91h-6.48a11.3,11.3,0,0,0-.68-1.32l-.15-.25Zm2.9-19.18a8.22,8.22,0,0,1,.19-4.74c.58-.44,1.13-.9,1.66-1.37a5.83,5.83,0,0,0,.28,3.72,19.56,19.56,0,0,1,2.16,11.51c-.15,1.26-.73,5.5-.88,6.65a7.65,7.65,0,0,1-2.13-.9l-.26-.14a16.32,16.32,0,0,0-1.86-.9,18.45,18.45,0,0,0,1.24-3.13,25.53,25.53,0,0,0-.4-10.7ZM161,115.43a13.74,13.74,0,0,0,3.67-1.69,8.38,8.38,0,0,0,.1,4.2,25.08,25.08,0,0,1,.39,10.21A18.09,18.09,0,0,1,164,131a.54.54,0,0,0-.19.11,9.1,9.1,0,0,0-2.37-.33h-.34a18.69,18.69,0,0,0-3,.41,9.77,9.77,0,0,1-2.7.27,3.1,3.1,0,0,1-2.33-1.06c-.67-.93-.76-2.58-.27-4.9,1.23-5.82,2.64-8.51,8.21-10.11Zm-32.71,22.81h-1.88s-.08-.32-.12-.53l.44-1.46a11.9,11.9,0,0,0,1.72.34c-.1.64-.16,1-.16,1.07a3.18,3.18,0,0,0,0,.58Zm-12.78-13.52,2.55-1.34L119.79,136l-1.44,1.34-2.86-12.63Zm2,13.58h-4.32V119.37l4.32,18.93ZM115,99.41a1.74,1.74,0,0,1,.14.47,4,4,0,0,1-.65,1.32,3.84,3.84,0,0,0-.77,1.73,6,6,0,0,0,.29,2.5l.49,1.39.72.21.53-.44.32,2.31-2.84,1V92.52l0,0a5.41,5.41,0,0,0,1,.76,3.43,3.43,0,0,1,.66.49c.43.46.3,1.13.06,2.18a5.23,5.23,0,0,0,0,3.49Zm.31,4,.3,2.13-.46.37-.27-.79a4.89,4.89,0,0,1-.25-2.08,3.17,3.17,0,0,1,.62-1.32,4.31,4.31,0,0,0,.87-2.06h0c.64-.74,1.75-.36,2.17-.17A2.92,2.92,0,0,1,119,102s0,0,0,.06a1,1,0,0,0,.08.14,26.06,26.06,0,0,1-2.66,2.52l-.21-1.5-1,.14Zm4.36-.33.12.19c0,.59-.08,1.29-.13,2.07s-.11,1.49-.16,2.33l-2.45.88-.38-2.7a33.35,33.35,0,0,0,3-2.77Zm-.22,5.68a46.33,46.33,0,0,0,.31,7.84,41.74,41.74,0,0,0,.74,4.42l-1.61.82-1.7-12.26,2.26-.82Zm2,25.14.18.81-.9.72L119,122.89l1.73-.89c.06.2.11.37.16.52a3.92,3.92,0,0,1,.28,1.56c0,1.23,0,1.85-.09,2.8,0,.51-.06,1.1-.1,1.91a18.61,18.61,0,0,0,.48,5.1Zm4,3.2a.87.87,0,0,0-.26-.08,2.55,2.55,0,0,0-1.85.44l-.08.06-.67-3a2.7,2.7,0,0,0,.33.22,17.12,17.12,0,0,0,2.87,1.28l-.34,1.1Zm-3.61-1.29.55,2.5h-3.69l3.14-2.5Zm2.71,2.18a1.58,1.58,0,0,1,.41,0c.18,0,.44.37.49.51a6.6,6.6,0,0,1,0,3.38,3.36,3.36,0,0,1-2.75.6c-1-.51-1-.95-.85-1.32.23-.76,1.64-2.89,2.66-3.12Zm4-2.3a14.62,14.62,0,0,1-5.15-1.77,3.05,3.05,0,0,1-1.19-1.33,17.19,17.19,0,0,1-.24-3.75c0-.81.07-1.39.1-1.89,0-.93.09-1.6.09-2.86a5.11,5.11,0,0,0-.32-1.87,27.69,27.69,0,0,1-1.14-5.75,52,52,0,0,1-.09-11.06c0-.39.05-.75.07-1.1l0,.11h0l0,.08a5.11,5.11,0,0,0,0-.52,9.22,9.22,0,0,1,1.79,2.42,14.39,14.39,0,0,1,.81,2.07,6.62,6.62,0,0,0,1.14,2.32,38.3,38.3,0,0,0,4.22,4.09,15.94,15.94,0,0,0-.06,4.15c.14,1.1.27,2,.4,2.84a25.61,25.61,0,0,1,.35,7c-.21,2.3-.58,5-.85,6.81Zm-6.44-41.53c-.17-.79-.24-1.44-.33-2a10,10,0,0,1-.21-4,4.9,4.9,0,0,0-.94-3.68c-.16-.26-.32-.51-.46-.78a5.79,5.79,0,0,1-.78-4.23c.38-1.31,1.15-4.58.07-6.58-.77-1.43-2-3.26-3.27-3.88a13.62,13.62,0,0,0-3.68-.71,4.83,4.83,0,0,1,.57-1.78c.19-.28.4-.55.6-.81.75.71,4.16,3.47,12.22,3.51h.17l1.12,0c.39,1.12,1.34,4.19,1.17,5.31a2.3,2.3,0,0,1-.34.93,2.88,2.88,0,0,0-.18,2.57c.21.9.42,1.56.6,2.12a6.84,6.84,0,0,1,.43,2.11,5,5,0,0,1-.43,1.6,4.78,4.78,0,0,0-.43,3,14.6,14.6,0,0,0,.55,1.57,8.91,8.91,0,0,1,.6,2.07,2.2,2.2,0,0,1-.12,1.34,4,4,0,0,0-.28,1.52c0,1.17,1,2.49,1.81,3.56.25.32.48.63.64.87.06.06,1.77,3.94,2.13,4.75h0a.28.28,0,0,0,0,.07l0,0c-.49,1.13-1.65,3.78-2.4,5.18a23.28,23.28,0,0,0-2.11,5.94,33.64,33.64,0,0,1-3.67-3.58,5.77,5.77,0,0,1-1-2,16.62,16.62,0,0,0-.86-2.19,10.78,10.78,0,0,0-2.8-3.42,1,1,0,0,0-.15-.38l.35-.68a10.82,10.82,0,0,0,1.34-7.36ZM134.9,56.84a2.29,2.29,0,0,1-.45,2.15c-.69.7-2,.38-2.67.17l.46-.51c.25-.32,2.43-3.13,1.73-5.07a1.54,1.54,0,0,0-1.37-1,1.88,1.88,0,0,1-.74-.27,1.1,1.1,0,0,1-.33-.57,1.77,1.77,0,0,0-1.07-1.22,1.81,1.81,0,0,0-.72-.09,3.5,3.5,0,0,1-1.38-.2,3,3,0,0,0-3.16,1.14,1.37,1.37,0,0,0-.31.62,4,4,0,0,1-.52,1.1,5,5,0,0,1-1.67,1.67l-.3-.18c-.42-.26-1.18-.74-1.17-1s.11-.24.49-.47a2.19,2.19,0,0,0,1-1,4.37,4.37,0,0,0,.25-.73,3.33,3.33,0,0,1,.69-1.53,4.37,4.37,0,0,1,1.54-.25,4.71,4.71,0,0,0,1.6-.26,3.79,3.79,0,0,0,.69-.48,1.62,1.62,0,0,1,1-.47c.55,0,.76.26,1,.62a1.19,1.19,0,0,0,.8.62,1.88,1.88,0,0,0,.94-.22c.42-.18.71-.28.94-.17s.5.74.68,1.18a2.78,2.78,0,0,0,.64,1.14,2.47,2.47,0,0,1,.28.29,2.52,2.52,0,0,0,1.17.84.68.68,0,0,1,.41.47,2.55,2.55,0,0,1-.24,1.85,2.62,2.62,0,0,0-.16,1.75Zm-9.73-3.27a4.64,4.64,0,0,0,.62-1.35.48.48,0,0,1,.13-.27s1-1.23,2.13-.84a4.35,4.35,0,0,0,1.71.25,1.1,1.1,0,0,1,.36,0c.32.12.4.3.53.66a2,2,0,0,0,.66,1,2.73,2.73,0,0,0,1.11.43c.43.08.57.12.67.4.45,1.24-1,3.44-1.57,4.17a10.49,10.49,0,0,1-2.69,2.41,2.81,2.81,0,0,1-2.09-.25c-.31-.19-1.35-1-2-1.55l0-.11a2.85,2.85,0,0,0-1-3l-.2-.19a6.05,6.05,0,0,0,1.67-1.78ZM126.24,61a3.67,3.67,0,0,0,1.88.49,3.61,3.61,0,0,0,1-.14,2,2,0,0,0,.57-.29l3.26,1.78a3.46,3.46,0,0,0-1.4,1l-.22.26a4.22,4.22,0,0,1-2.76,2,2.37,2.37,0,0,1-1.64-.63,5.25,5.25,0,0,0-2.29-1,13.56,13.56,0,0,0-2-.16,3.48,3.48,0,0,1-1.65-.32,6.38,6.38,0,0,1-1.79-1.79l-.38-.85.25-.16c1.76-1,3.93-.66,5.23-1.55.62.5,1.59,1.25,1.92,1.47Zm-5.65,3.71a4.22,4.22,0,0,0,2,.41,14.9,14.9,0,0,1,1.84.16,4.41,4.41,0,0,1,1.9.87,3.35,3.35,0,0,0,2,.81l.23,0a5,5,0,0,0,3.4-2.29l.21-.26a3.55,3.55,0,0,1,2-1h.12l0,0a9.58,9.58,0,0,0,1.7,2.56c-.35.26-3.43,2.37-10,2.37h-.16c-7.94,0-11.16-2.84-11.63-3.3a19.92,19.92,0,0,1,3.76-3.28l.34.77a7.17,7.17,0,0,0,2.19,2.18ZM145.66,96.5A13.31,13.31,0,0,1,146,98a6.16,6.16,0,0,0-3.12,4.26,36.53,36.53,0,0,0-.68,3.7,7.52,7.52,0,0,1-.34,1.7,46.72,46.72,0,0,1-5.66,7.11,8,8,0,0,1-.23-.8c-.16-.73.39-1.52,1-2.35a5.62,5.62,0,0,0,1.25-2.74,2.82,2.82,0,0,0-.36-1.66c-.29-.56-.69-1.33-.59-4.42a41.67,41.67,0,0,1,1.11-8.54A42.45,42.45,0,0,1,142,91a2.82,2.82,0,0,0,1.29.34l.25,0a4.74,4.74,0,0,0,2.29-1.3,6.91,6.91,0,0,1-.09,2.88,7.93,7.93,0,0,0,0,3.65Zm-.55,11.87.11.68c.39,2.3.6,3.91,0,5.2a9.35,9.35,0,0,1-1.39,2.15,9.57,9.57,0,0,0-2.11,4.11c-.71,3.08-.82,7.66-.22,9.24a15.36,15.36,0,0,0,.81,1.65l0,.08h0l.22.38c.4.64,1.05,1.71.8,2.51a1.61,1.61,0,0,1-1,.92,22.72,22.72,0,0,1-4.82,1.05,44.64,44.64,0,0,0-.79-6.39c-.61-2.27.16-5.8.68-7.7s-.36-4.59-1-6.49c1.77-1.65,5.76-6.61,6.2-7.74a8,8,0,0,0,.39-1.92,36.27,36.27,0,0,1,.66-3.6A5.4,5.4,0,0,1,146,99a6,6,0,0,1-.73,3.33,4.06,4.06,0,0,0-.3.66,11.14,11.14,0,0,0,.1,5.34Zm.42-19.44a5.1,5.1,0,0,1-2.13,1.42c-1.38.15-2.92-1.79-3.58-2.83a35.9,35.9,0,0,1,3-3.26,1.08,1.08,0,0,1,1-.26c.86.2,1.66,1.43,1.93,2a9,9,0,0,0-.14,3Zm-6.69-1.22a12.75,12.75,0,0,0,.89,1.27l-1.36.35L135,75.48l2.49-.61,2.67,10.86c-.6.7-1.11,1.32-1.22,1.45l-.21.25.16.28Zm3.37-4.19a14.69,14.69,0,0,0-1.35,1.37l-2.51-10.23,3.34-.82,2.17,9.24a2.08,2.08,0,0,0-1.65.44Zm-8.39-8.71,3.87,15.65,2.73-.69a6.4,6.4,0,0,0,.72.65,30.67,30.67,0,0,0-3.87,3.63,12.52,12.52,0,0,0-2,4.57,11.91,11.91,0,0,1-1.37,3.11c-.69-1.52-2.27-4.94-2.58-5.35-.68-.9-1.62-2.13-1.62-3a3,3,0,0,1,.22-1.2,3.1,3.1,0,0,0,.17-1.79,9,9,0,0,0-.66-2.28,15.68,15.68,0,0,1-.52-1.49,4.14,4.14,0,0,1,.41-2.41,5.67,5.67,0,0,0,.49-1.92,4.79,4.79,0,0,0-.1-1h0a5,5,0,0,1,.87-2,4.6,4.6,0,0,0,.61-2,7.11,7.11,0,0,1,2-4.17,20.51,20.51,0,0,1,4.08-4.08c.76,1.06,2.32,3.09,3.08,4.06l-6.51,1.6Zm-1.38-2.17a8.08,8.08,0,0,0-2.15,4.64,3.82,3.82,0,0,1-.48,1.63c-.21.35-.37.64-.5.9-.16-.52-.35-1.13-.55-2-.3-1.24-.15-1.5.08-1.88a3.11,3.11,0,0,0,.46-1.27c.21-1.37-.79-4.49-1.13-5.5,4.85-.35,7.46-1.82,8.24-2.34l0,.23a4.65,4.65,0,0,0,.32,1.27,20.91,20.91,0,0,0-4.32,4.28Zm-3.26,65.14c0-.05.81-5,1.15-8.83a26.47,26.47,0,0,0-.35-7.22c-.12-.82-.26-1.74-.4-2.83-.61-4.89,1.77-9.68,2.25-10.59.83-1.55,2.1-4.48,2.53-5.46h0a.08.08,0,0,0,0,0l.13-.29h0a14.38,14.38,0,0,0,1.59-3.67,18.17,18.17,0,0,1,.87-2.37,38.85,38.85,0,0,0-.7,6.31c-.11,3.33.35,4.22.69,4.88a1.88,1.88,0,0,1,.26,1.18,5,5,0,0,1-1.08,2.26c-.67,1-1.35,2-1.1,3.08a19.3,19.3,0,0,0,.58,1.87c.62,1.79,1.47,4.24,1,5.94-.67,2.44-1.32,5.84-.68,8.19a58,58,0,0,1,.86,7.75,3.18,3.18,0,0,0-2.26-.58,3.51,3.51,0,0,0-1.66.55.61.61,0,0,0-.4.4c-1.54,1.49-1.77,1.41-2.6,1.08l-.12,0c-.67-.27-.57-1.57-.57-1.57Zm5.46.5a3,3,0,0,1,2.53,1.26,3.28,3.28,0,0,0,.49.46,6.3,6.3,0,0,0,.85.4c1.08.45,1.89.86,1.71,1.62-.11.48-2,.42-2.67.39l-.66,0c-.45,0-1-.65-1.46-1.22a5,5,0,0,0-1.16-1.18,3.13,3.13,0,0,1-.93-1.27,2.5,2.5,0,0,1,1.3-.44Zm28.61-56.51c-2.79-.63-5.11.62-6.9,1.59l-.65.33a20,20,0,0,0-5,3.26,12.4,12.4,0,0,1-3.07-3.47c3.71-2.3,9.09-5.22,10.15-5,3.78,1,5.64.17,6.54-.21a2.11,2.11,0,0,1,.4-.15,2.05,2.05,0,0,1,1,.16c.36.11.82.24,1.47.38,1.95.4,2.29.88,2.34,1.08s-.19.72-.75,1.26c-1.7,1.62-4.32,1-5.58.74ZM158,77.61c-1.72-.47-8.52,3.62-10.77,5a4,4,0,0,1-.23-1,4.8,4.8,0,0,1,1.45-3.4A14.69,14.69,0,0,0,153,68.57c.18-1.83,2.63-3.8,3.31-4.32a19.9,19.9,0,0,0,2,.47,4.17,4.17,0,0,0,.75.08v0h.68a10.48,10.48,0,0,0,2.28-.36,13.45,13.45,0,0,1-.38,2.06c-.05.15-.11.3-.17.47a5.11,5.11,0,0,0-.5,2s0,.13,0,.2a2.08,2.08,0,0,0,1.58,2.22,9.41,9.41,0,0,0,1.77.17,5.52,5.52,0,0,0,2.46-.48,6.26,6.26,0,0,0,3-3.9c.1-.42.22-.86.33-1.28.23-.85.56-2.22.56-2.22a6.78,6.78,0,0,1,2.36-.58,5.89,5.89,0,0,1,2.68.81,6.06,6.06,0,0,0,2.9,1.49c0,.13.06.24.07.36s.06.26.08.39a5.34,5.34,0,0,0-1.82-.07c-1.83.21-4.41,1.57-5.16,2.78-1.44,2.28-4.7,3.09-4.7,3.09-.86.27-4.55,1.56-4.86,1.77a29.94,29.94,0,0,0-3.78,4l-.35-.08Zm4.81-17.17a3,3,0,0,0,1.66-.69,2.2,2.2,0,0,1,1.08-.53,2.34,2.34,0,0,1,1.44.53,4.58,4.58,0,0,0,2.32.84,4.68,4.68,0,0,0,.17.53h0a9.34,9.34,0,0,1,.26,1.4,12.27,12.27,0,0,1-.62,3.1c-.11.43-.23.87-.33,1.3a5.42,5.42,0,0,1-2.49,3.3,6.28,6.28,0,0,1-3.63.23c-.72-.15-.81-.69-.85-1.38,0-.1,0-.18,0-.25a5.6,5.6,0,0,1,.44-1.54c.07-.17.13-.34.18-.49a17.48,17.48,0,0,0,.49-3,26.57,26.57,0,0,0-.11-3.39Zm5-9.81a3.86,3.86,0,0,1,1.3,2,6,6,0,0,0-3.08.4l.41.83a4.93,4.93,0,0,1,2.85-.25.25.25,0,0,1,.08.14,19.41,19.41,0,0,1-.08,5,3.44,3.44,0,0,0-.1.84A3.87,3.87,0,0,1,167.5,59a3.1,3.1,0,0,0-2-.66A3,3,0,0,0,164,59a2,2,0,0,1-1.31.5c0-.08-.05-.17-.08-.24v0l0,0a.59.59,0,0,0-.06-.16,7.43,7.43,0,0,1-.68-2.44,28.7,28.7,0,0,1,.18-3h0a2,2,0,0,1,.94-.16c.54,0,1.14,0,1.39.32a1.15,1.15,0,0,1,.15.8,16.11,16.11,0,0,1-.78,2.85l1,0c.07-.26.66-2.59.67-2.61a1.91,1.91,0,0,0-.14-1.56,2.91,2.91,0,0,0-2.29-.76,4.27,4.27,0,0,0-.82.08v0a3.4,3.4,0,0,1,1.36-2.17c.92-.72,3.1-.64,4.41.17ZM156.26,61.07c-1,.46-.77,1.84-.59,2.49-.86.66-3.4,2.77-3.6,4.92a14,14,0,0,1-4.19,9.06,5.72,5.72,0,0,0-1.78,4.23,6.1,6.1,0,0,0,.53,1.78l-.08-.07A4.39,4.39,0,0,0,146,84.7a5.06,5.06,0,0,0-1.06-1.12l-2.55-10.87-1.06.26c-.68-.87-3.16-4.08-3.63-4.82a3.17,3.17,0,0,1-.33-1.19,2.33,2.33,0,0,0-.71-1.68,9.42,9.42,0,0,1-1.56-2.46,12.19,12.19,0,0,0,4.35-8.61A38.28,38.28,0,0,0,147.2,52a34.86,34.86,0,0,0,7.75,2.3A13.76,13.76,0,0,0,156.79,61a1.41,1.41,0,0,0-.53.12Zm-1.33-7.75A33.74,33.74,0,0,1,147.27,51h-.16a36,36,0,0,1-7.64,2.25,12.25,12.25,0,0,0-.87-4.3,27.07,27.07,0,0,0,8.6-2.52A27.22,27.22,0,0,0,155.81,49a12.42,12.42,0,0,0-.88,4.37Zm-6-14.44s0,.06,0,.08a2,2,0,0,0,2.1,1.87h0a2.31,2.31,0,0,0,1.72-.76,2.55,2.55,0,0,0,.66-1.87A3,3,0,0,0,151,35.54h0a3.08,3.08,0,0,0-2.95-3.19v.93a2.14,2.14,0,0,1,2,2.17,3.33,3.33,0,0,0-2.89,1.72,3.39,3.39,0,0,0-2.9-1.73,2.15,2.15,0,0,1,2-2.17v-.93a3.09,3.09,0,0,0-2.95,3.2h0A3,3,0,0,0,141,38.2a2.46,2.46,0,0,0,.66,1.86,2.34,2.34,0,0,0,1.72.77h0A2,2,0,0,0,145.52,39v-.08h-.93a1.14,1.14,0,0,1-1.21,1,1.43,1.43,0,0,1-1-.47,1.56,1.56,0,0,1-.41-1.17,2.13,2.13,0,0,1,2.27-1.9h0A2.49,2.49,0,0,1,146.74,39v2.92h-8.8c.65-5,7.46-15.72,9.21-18.39,1.75,2.73,8.74,13.78,9.42,18.39h-8.9V39a2.48,2.48,0,0,1,2.52-2.63h0a2.17,2.17,0,0,1,2.28,1.9,1.58,1.58,0,0,1-.41,1.17,1.44,1.44,0,0,1-1.05.46h0a1.08,1.08,0,0,1-1.18-1h-.92Zm-1.72,4A1.12,1.12,0,1,1,146.08,44a1.12,1.12,0,0,1,1.12-1.12Zm-1.71,0a1.66,1.66,0,0,0-.17.32,2,2,0,0,0,.34,2.13,3,3,0,0,0,.73.55,29.16,29.16,0,0,1-8.19,2.23,12.32,12.32,0,0,0-5-5.23ZM134.34,23H132v.93h2.39v6.63a19.66,19.66,0,0,0-4.91-4.2V22.58h-1v3.69a23.79,23.79,0,0,0-4.65,4.4V16.19L134.34,21v2ZM128.91,27c.83.59,5.34,4,5.43,5.64v9.24h-3.25a12,12,0,0,0-3.8-.61,12.1,12.1,0,0,0-3.48.51V33c.23-1.88,3.61-4.88,5.1-6Zm-1.62,15.2a11.25,11.25,0,0,1,6.82,20.2l-3.64-2c.24-.21.66-.53.66-.53l.17,0c.72.23,2.66.85,3.81-.34a3.16,3.16,0,0,0,.71-2.92,2.07,2.07,0,0,1,0-1.16,3.41,3.41,0,0,0,.32-2.63,1.6,1.6,0,0,0-1-1,1.62,1.62,0,0,1-.8-.56,2.21,2.21,0,0,0-.4-.42,3.46,3.46,0,0,1-.37-.77,3.08,3.08,0,0,0-1.12-1.66,2,2,0,0,0-1.71.14l-.43.17a1.42,1.42,0,0,1-.19-.24,1.89,1.89,0,0,0-1.81-1,2.5,2.5,0,0,0-1.5.67,2.31,2.31,0,0,1-.53.37,4.9,4.9,0,0,1-1.24.17,3.76,3.76,0,0,0-2.08.48,3.92,3.92,0,0,0-1,2,3.74,3.74,0,0,1-.19.59,1.42,1.42,0,0,1-.63.54,1.55,1.55,0,0,0-.94,1.22c0,.78.8,1.3,1.61,1.8.4.25,1.14.83,1.14.83a2,2,0,0,1,.78,2.22c-.12.77-.66.86-1.46.9a10.73,10.73,0,0,0-3.74,1l-.2.14a11.26,11.26,0,0,1,8.86-18.19Zm-4.49-.32h-1.61V15.65l.65-.36,1,.45V41.91Zm-6,5.35a12.14,12.14,0,0,0-1.5,3.93,16.58,16.58,0,0,1-5.43-1.81V45.17a30.36,30.36,0,0,0,6.93,2.09Zm-4.78,41.48a14.68,14.68,0,0,1,.43-2.4,16.56,16.56,0,0,0,.45-2.54c0-.29,0-.62.1-1A9.17,9.17,0,0,0,112.9,79a24.54,24.54,0,0,1-.85-5.64c0-1.31.37-4.07.37-4.07a13.62,13.62,0,0,1,3.39.62,8.47,8.47,0,0,1,2.85,3.49c.94,1.75.13,4.94-.14,5.88a6.69,6.69,0,0,0,.85,4.91c.15.3.32.57.49.85a4,4,0,0,1,.81,3,10.87,10.87,0,0,0,.21,4.25c.1.54.21,1.17.33,2a10.12,10.12,0,0,1-1.25,6.8.59.59,0,0,1,0,.08,3.2,3.2,0,0,0-1.26-2.51,2.89,2.89,0,0,0-3,0,4.9,4.9,0,0,1,.14-2.57c.24-1.08.5-2.18-.29-3a4.23,4.23,0,0,0-.84-.64c-.31-.2-2-1.22-2.25-2.1a4.2,4.2,0,0,1-.4-1.62Zm4.13,21.18,1.72,12.39-2.68,1.37-2.83-12.39,3.79-1.37Zm37.75,35.82a17.8,17.8,0,0,1,2.47,1.92c.42.45.38.86-.14,1.47-.21.24-1.4,1.23-2.27,2-.51-.5-1.55-1.51-2.18-2.14-.15-.15-.57-.57.1-1.31.14-.16,1.22-1.16,2-1.89Zm3,4a1.82,1.82,0,0,0,.12-2.71,13.3,13.3,0,0,0-1.75-1.43h7.18l-1,.92a1.88,1.88,0,0,0-.52,1.33,1.38,1.38,0,0,0,.57,1l1.18.92.59-.72-1.2-.94a.45.45,0,0,1-.22-.33,1,1,0,0,1,.26-.61l1.52-1.45a12.4,12.4,0,0,1,1.86,1.35c.08.08.34.31,0,1a4.35,4.35,0,0,1-.57.84L162.12,152a14.67,14.67,0,0,0-5.81-.89c-.29,0-.63,0-1,0a21.72,21.72,0,0,0,1.66-1.47Zm-1.2-5.07c.77-.48,1.73-1.06,2.38-1.44a8,8,0,0,1,2.41-1.07c.12,0,3-.55,3.17-2.21a2.83,2.83,0,0,0,0-.77H170v.45c0,.64,0,1.19,0,1.56a7.48,7.48,0,0,1,0,1,4.16,4.16,0,0,0,.32,2.43Zm20.17-.92a2.14,2.14,0,0,0,0-1.9,19.54,19.54,0,0,0-1.16-2.23l-.29-.5h6.66V141H179v3.69h-4a2.51,2.51,0,0,0,.91-.92Zm4.52-57.46A15.51,15.51,0,0,0,183,85.07a32.42,32.42,0,0,0,2.91,1.62c0,.09-.06.19-.09.28a5.33,5.33,0,0,0-.38,1.5,9,9,0,0,0,2.2,5.46,4.41,4.41,0,0,1,1.08,2,1.23,1.23,0,0,1-.4.93,4.87,4.87,0,0,1-2.89.87v-.19c-.12-2.42-.84-6.24-5-11.3Zm8.3,11.48V101h-3.29V98.7a6.32,6.32,0,0,0,3.29-.94Zm-3.29,20.83a5.21,5.21,0,0,0,.74.9,4.93,4.93,0,0,0,3.55,1.47h0a4.32,4.32,0,0,0,4.46-4,5.4,5.4,0,0,0-.21-1.57s-.31-.75-.32-.75c-1-1.64-.63-4.84.59-5.7a2.06,2.06,0,0,1,1.63-.4,1.4,1.4,0,0,1,.92.77,1.26,1.26,0,0,1,0,1.21,1,1,0,0,1-1,.51V112h0a2.06,2.06,0,0,0,1.77-1,2.14,2.14,0,0,0,.05-2.12,2.28,2.28,0,0,0-1.52-1.25,2.92,2.92,0,0,0-2.39.54c-1.31.93-1.76,3.27-1.44,5.19a4.29,4.29,0,0,0-1.86-.39,2.68,2.68,0,0,0-2.41,1.3,2.43,2.43,0,0,0,0,2.42,2.14,2.14,0,0,0,2,1h0l0-.93a1.21,1.21,0,0,1-1.18-.58,1.5,1.5,0,0,1,0-1.49,1.71,1.71,0,0,1,1.6-.83,2.85,2.85,0,0,1,2.1.72,3.32,3.32,0,0,1,.75,2.31,3.4,3.4,0,0,1-3.53,3.06h0a4.07,4.07,0,0,1-2.9-1.2,4.23,4.23,0,0,1-1.39-3.22v-1l8.14-8.91h5.5v-.93h-5.91l-7.73,8.46V101.94H199.1V101h-2.54V89.86l10.68,0c-2,1.5-6.12,4.66-6.52,5a3.43,3.43,0,0,0-1.23,2.9,2.81,2.81,0,0,0,.86,2,3.56,3.56,0,0,0,2.38,1,2.7,2.7,0,0,0,2.79-2.48,2.42,2.42,0,0,0-.7-1.77,1.88,1.88,0,0,0-1.43-.5,1.71,1.71,0,0,0-1.59,1.75l.93,0c0-.13.12-.77.7-.8a1,1,0,0,1,.73.23,1.52,1.52,0,0,1,.43,1.08c-.05,1.3-1.39,1.58-1.86,1.58a2.65,2.65,0,0,1-1.72-.76,2,2,0,0,1-.59-1.4,2.5,2.5,0,0,1,.93-2.21c.44-.41,7.55-5.69,7.55-5.69h.41a62.63,62.63,0,0,1-23.84,40.63v-11.9ZM189.21,67a22.84,22.84,0,0,0-2.82-5.24,31.21,31.21,0,0,1,3.09-6.26,33.9,33.9,0,0,1,3,5.68,19.61,19.61,0,0,0-3.3,5.82Zm3.73-4.72a37.9,37.9,0,0,1,2.59,13.8l0,24.94h-5.88V69.72c0-1.9,1.4-5,3.27-7.45Zm3.59,14.44H202V88.93h-5.42V76.71ZM188.79,54.5a34.83,34.83,0,0,0-3.34,6.64V50.86a19.8,19.8,0,0,1,3.34,3.64Zm0,15.21h0V93.84l-.33-.45a8.27,8.27,0,0,1-2-4.92,5.72,5.72,0,0,1,.33-1.2,14,14,0,0,0,.92-4.58c0-1.48-.74-3.63-2.2-6.38V62.17c1.91,2.66,3.29,5.67,3.29,7.54Zm-2,13a11.12,11.12,0,0,1-.5,3.11,16.07,16.07,0,0,1-3.51-2.14c-.14-.18.06-1,.2-1.47.27-1,.55-2,0-2.7a3.56,3.56,0,0,0-2.7-1.44,5.15,5.15,0,1,0-9.62-2.54,5.18,5.18,0,0,0,2.15,4.18,3.67,3.67,0,0,0-.54,1.26c-.14,1-.38,2.66-1.08,3.27a6.56,6.56,0,0,1-.87.62c-.13.08-.45.2-.52.33s0,.23.09.29l0,0a1.72,1.72,0,0,0,.35.23,15.24,15.24,0,0,0,5.64,1.34,28.56,28.56,0,0,1-.83,3,34.1,34.1,0,0,1-4.64,9,20.74,20.74,0,0,1-3.69,4l-.43.38a50.69,50.69,0,0,0-3.87,3.78,13.77,13.77,0,0,0-1.73,2.48,7.72,7.72,0,0,1-2.32,2.85,8.65,8.65,0,0,0-4.22,5.63,30.11,30.11,0,0,1-2.1-2.43c-.85-1.15-.83-4.54-.36-7.29.22-1.35.38-2.82.54-4.46,1.58-.82,2.57-3.59,3.26-6a9.44,9.44,0,0,1,2.68-4.17,29.9,29.9,0,0,0,4.79-5.36,20.54,20.54,0,0,0,2.38-5.4,5.41,5.41,0,0,0,4.19-1.32c.86-.82,1.19-1.54,1-2.19-.23-.8-1.2-1.35-3-1.73-.48-.1-.85-.2-1.15-.29l.68-.27a3.65,3.65,0,0,1,1.95-.45l.05-.94a4.64,4.64,0,0,0-2.35.53c-1.17.45-2,.85-2.14.9a4.6,4.6,0,0,0-.51.18,7.38,7.38,0,0,1-4.55.46,26.74,26.74,0,0,1,3.26-3.44,30.54,30.54,0,0,1,4.68-1.68c.54-.16,1-.3,1.29-.4a9.31,9.31,0,0,0,3.86-3.06A7.87,7.87,0,0,1,177,67a3.57,3.57,0,0,1,1.91.19,16.82,16.82,0,0,0,4,6.75c.19.22.4.46.44.53l.14.24c2.72,4.54,3.28,6.87,3.27,8Zm-2.2-40.77H174.24V33c0-1.79,3.56-4.79,5.22-6a39.1,39.1,0,0,1,5.06,3.82V41.91Zm0-18.95h-2.16v.93h2.16v5.76A39.71,39.71,0,0,0,180,26.32V22.58h-1v3.69a22.82,22.82,0,0,0-4.8,4.59V16.2l10.3,5.61V23Zm0,19.88V44a28.08,28.08,0,0,1-7.59,2.32A12.29,12.29,0,0,0,173,42.84Zm-11.3-.93h-1.61V15.74l1-.45.65.36V41.91Zm5.15,11.57a11.17,11.17,0,0,1-2,6.34,2.76,2.76,0,0,1-1.57.1c-2.89-1-2.19-4.46-1.86-6.14l.06-.32A6,6,0,0,0,171.81,49a3.3,3.3,0,0,0-2.34-1.42,4.13,4.13,0,0,0-3.6,1.33l-.09.08a3.28,3.28,0,0,0-4.26-1c-2.31,1-2.56,4.45-2.46,5.59a1.93,1.93,0,0,1-.44,1.24,3.92,3.92,0,0,0-.74,2,4.51,4.51,0,0,0,.87,2.4c.41.69.67,1.15.49,1.42-.31.45-.65.48-1.21.39a12.45,12.45,0,0,1-2.17-7.62,11.26,11.26,0,0,1,22.51,0Zm-7.77-23a24.65,24.65,0,0,0-4.53-4.23V22.58h-1v3.74a52.88,52.88,0,0,0-5,4.09V23.89h2.39V23h-2.39V21l10.53-4.79V30.5ZM146.68,6.93h-1.6v.94h1.6v2H136.12c1.67-3,5.85-5.13,10.56-5.28V6.93ZM71.08,80.51A76.53,76.53,0,0,1,142.73,4.23c-3.56.94-6.39,3-7.64,5.65h-1.91V13.3h1.16V20l-12.08-5.52V9h-.75v5.37l-11.66,6.38V16.93h-.93l0,6h-2.29v.93H109V31.2a63.14,63.14,0,0,0,0,99.65V141H106l0,3.69A76.43,76.43,0,0,1,71.08,80.51Zm35.35,36.21a2.46,2.46,0,0,0,0-2.42A2.7,2.7,0,0,0,104,113a4.24,4.24,0,0,0-1.85.39c.32-1.92-.13-4.26-1.44-5.19a2.92,2.92,0,0,0-2.39-.54,2.33,2.33,0,0,0-1.53,1.24,2.18,2.18,0,0,0,.06,2.13,2.05,2.05,0,0,0,1.77,1h0v-.93a1.26,1.26,0,0,1-1-.52,1.24,1.24,0,0,1,0-1.21,1.4,1.4,0,0,1,.92-.77,2.07,2.07,0,0,1,1.63.4c1.22.86,1.55,4.06.59,5.7a4.92,4.92,0,0,0-.53,2.32,4.28,4.28,0,0,0,4.45,4h0a4.93,4.93,0,0,0,3.55-1.47,6,6,0,0,0,.69-.83v11A61,61,0,0,1,86.14,89.86h.22c.06.06,6.26,5.23,6.76,5.69a2.5,2.5,0,0,1,.93,2.22,1.9,1.9,0,0,1-.59,1.38,2.39,2.39,0,0,1-1.71.67c-.48,0-1.81-.18-1.85-1.48a1.48,1.48,0,0,1,.4-1.08A1,1,0,0,1,91,97c.58,0,.74.67.74.8l.93,0a1.74,1.74,0,0,0-1.63-1.75,1.91,1.91,0,0,0-1.43.51A2.39,2.39,0,0,0,89,98.37a2.59,2.59,0,0,0,2.78,2.38,3.44,3.44,0,0,0,2.37-.94,2.81,2.81,0,0,0,.86-2,3.45,3.45,0,0,0-1.23-2.9c-.4-.36-4-3.48-5.83-5H98.07V101H95.3v.93H109v11.28l-7.73-8.46H95.3v.93h5.51L109,114.6v.73a4.39,4.39,0,0,1-1.34,3.5,4,4,0,0,1-2.9,1.2h0a3.41,3.41,0,0,1-3.53-3.06,3.33,3.33,0,0,1,.75-2.32,2.85,2.85,0,0,1,2.1-.72,1.7,1.7,0,0,1,1.6.84,1.48,1.48,0,0,1,0,1.48,1.29,1.29,0,0,1-1.18.58l0,.93a2.15,2.15,0,0,0,2-1ZM109,42.84v7.29c-3.31,2.4-7.87,8.79-9.91,17.38v-11a.6.6,0,0,0,.53.32.61.61,0,0,0,.61-.61.61.61,0,0,0-1.14-.3V54.46a.6.6,0,0,0,.53.32.61.61,0,0,0,.61-.61.61.61,0,0,0-.61-.62.61.61,0,0,0-.53.33V52.39a.6.6,0,0,0,.53.32.61.61,0,0,0,.61-.61.61.61,0,0,0-.61-.62.61.61,0,0,0-.53.33v-.63h-.23a.63.63,0,0,0,.34-.54.61.61,0,0,0-.62-.61.61.61,0,0,0-.61.61.62.62,0,0,0,.33.54H98v.69a.61.61,0,1,0,0,.46v1.61a.61.61,0,1,0,0,.46V56a.61.61,0,1,0,0,.46S98,75,98,76.32H92.64v-6a.59.59,0,0,0,.53.32.62.62,0,0,0,0-1.23.59.59,0,0,0-.53.32V68.23a.61.61,0,0,0,.53.32.62.62,0,0,0,0-1.23.59.59,0,0,0-.53.32V66.16a.59.59,0,0,0,.53.32.62.62,0,0,0,0-1.23.61.61,0,0,0-.53.32V65h-.23a.61.61,0,1,0-.56,0h-.23v.68a.61.61,0,0,0-.56-.38.62.62,0,1,0,0,1.23.61.61,0,0,0,.56-.38v1.6a.61.61,0,0,0-.56-.38.62.62,0,1,0,0,1.23.61.61,0,0,0,.56-.38v1.6a.61.61,0,0,0-.56-.38.62.62,0,1,0,0,1.23.61.61,0,0,0,.56-.38v6.31l-4.29,4,.69.74,3.63-3.47V88.93H86a62.64,62.64,0,0,1-.51-7.9A61.83,61.83,0,0,1,109,32.4v9.51h-2.59v.93ZM104.72,70.3V101H99l0-24.71a35.11,35.11,0,0,1,2.52-13.47c1.87,2.46,3.06,5.3,3.13,7.15,0,.1,0,.32,0,.32ZM102,61.73a33.9,33.9,0,0,1,3-5.68,31.58,31.58,0,0,1,3.1,6.27,22.35,22.35,0,0,0-2.91,5.25A19.47,19.47,0,0,0,102,61.73Zm3.64,8.56s0-.1,0-.27c.11-1.77,1.42-4.5,3.27-7.1V101h-3.3V70.29Zm.08-15.23A20.36,20.36,0,0,1,109,51.52v9.84a36.62,36.62,0,0,0-3.22-6.3ZM98.08,77.29V88.93H92.6V77.3Zm8.86,64.61H115v2.75H107V141.9Zm.54,3.69H120.3a2.52,2.52,0,0,0-.37,3.34c.22.31,2.7,3.07,3.69,4.17a76.09,76.09,0,0,1-16.14-7.51Zm15.72,5.65c-1.21-1.34-2.39-2.68-2.52-2.85a1.59,1.59,0,0,1,.29-2.17,2.18,2.18,0,0,1,1-.63h.92l2.87,3a2.68,2.68,0,0,0-1.53.6,2.77,2.77,0,0,0-1,2Zm1.59,1.69a2.2,2.2,0,0,1-.67-1.61,1.88,1.88,0,0,1,.71-1.39,1.82,1.82,0,0,1,1.47-.38,1.23,1.23,0,0,1,1,.76,1.05,1.05,0,0,1,.06.24c.31,0,.62,0,.94,0a1.91,1.91,0,0,0-.13-.62,2.09,2.09,0,0,0-.72-.94l-3.21-3.45h7.86l-2,1.82.63.69,2.71-2.51h.07v6.34l-.7.24-.35.12c-.47.15-1,.33-1.45.51a14.24,14.24,0,0,1-4,1.11,3.15,3.15,0,0,1-2.16-1Zm3.82,1.65c.85-.23,1.78-.57,2.7-.9l1.43-.52.35-.11a14.42,14.42,0,0,1,5.85-1,45.06,45.06,0,0,1,5.09.42c.36.6,1.61,2.8,2.52,4.42a75.83,75.83,0,0,1-17.94-2.34Zm18.63,1.68c-2.61-4.65-2.63-4.66-3-4.67-.52-.08-1-.14-1.51-.19v-1.63h2.2v-.88h-2.21v-3.3h10c-.62.57-1.36,1.25-1.5,1.42a1.74,1.74,0,0,0-.06,2.59l1.81,1.78c-.74.08-1.56.19-2.44.34-.28,0-.3,0-3.29,4.54Zm.68.68c1.07-1.64,2.49-3.78,2.87-4.33a25.27,25.27,0,0,1,5-.59,17.07,17.07,0,0,1,6.38,1l.35.11,1.42.51c.88.33,1.77.65,2.6.88a76.43,76.43,0,0,1-18.65,2.39Zm22.57-4a3.15,3.15,0,0,1-2.16,1,14.3,14.3,0,0,1-4.05-1.11l-1.2-.43,2.6-2.81a3.56,3.56,0,0,0,1-2.18,1.37,1.37,0,0,0-.46-1,10.07,10.07,0,0,0-1-.79h5.9l-3.25,3.46a2.1,2.1,0,0,0-.73.93,2.13,2.13,0,0,0-.12.61,7.22,7.22,0,0,1,.93,0,1.38,1.38,0,0,1,.06-.26,1.26,1.26,0,0,1,.95-.76,1.81,1.81,0,0,1,1.47.38,1.89,1.89,0,0,1,.72,1.39,2.23,2.23,0,0,1-.67,1.61Zm.53-3.73a2.71,2.71,0,0,0-1.53-.59l2.87-3h.93a2.2,2.2,0,0,1,1,.63,1.57,1.57,0,0,1,.29,2.17c-.12.17-1.31,1.51-2.51,2.85a2.86,2.86,0,0,0-1.06-2Zm.74,3.79c1.05-1.18,3.37-3.76,3.59-4.06a2.52,2.52,0,0,0-.37-3.34h12.58a75.84,75.84,0,0,1-15.81,7.4ZM188,144.66h-8.08v-2.75H188v2.75Zm.93,0V141h-3.48v-9.32a63.15,63.15,0,0,0,0-101.27v-6.5h2.37V23h-2.37v-6h-1v3.83L172.9,14.41V9h-.75v5.42L160.07,20V13.3h1.1V9.88h-1.85c-1.28-2.74-4.21-4.81-7.88-5.72A76.41,76.41,0,0,1,188.93,144.7Z" fill="#231f20" fill-rule="evenodd"/><text transform="translate(67.46 230.2)" font-size="28" fill="#231f20" font-family="FuturaBT-Book, Futura Bk BT">Institut für Germanistik</text></svg>