<?xml version="1.0" encoding="utf-8"?>
<!-- Generator: Adobe Illustrator 24.3.0, SVG Export Plug-In . SVG Version: 6.00 Build 0)  -->
<svg version="1.1" id="Layer_1" xmlns="http://www.w3.org/2000/svg" xmlns:xlink="http://www.w3.org/1999/xlink" x="0px" y="0px"
	 viewBox="0 0 301 112" style="enable-background:new 0 0 301 112;" xml:space="preserve">
<style type="text/css">
	.st0{fill:#1E1E1C;}
</style>
<g>
	<polygon class="st0" points="268.5,36.4 268.5,38.4 272.7,38.4 272.7,54.2 274.9,54.2 274.9,38.4 279.1,38.4 279.1,36.4 	"/>
	<polygon class="st0" points="253.6,36.4 242.9,36.4 242.9,38.4 247.2,38.4 247.2,54.2 249.4,54.2 249.4,38.4 253.6,38.4 	"/>
	<rect x="237.6" y="36.4" class="st0" width="2.2" height="17.8"/>
	<path class="st0" d="M229.2,43.7l-1.3-0.5c-1.1-0.4-2.5-1.2-2.5-2.6c0-1.6,1.6-2.5,3-2.5c1.3,0,2.2,0.6,2.9,1.7l1.8-1.1
		c-1-1.7-2.6-2.7-4.6-2.7c-2.7,0-5.2,1.7-5.2,4.6c0,2.5,1.8,3.6,3.9,4.5l1.2,0.5c1.5,0.6,3.1,1.5,3.1,3.4c0,1.9-1.4,3.5-3.3,3.5
		c-1.9,0-3.5-1.4-3.4-3.4l-2.2,0.5c0.4,2.9,2.6,5,5.5,5c3.2,0,5.7-2.3,5.7-5.6C233.6,46.1,231.7,44.7,229.2,43.7L229.2,43.7z"/>
	<polygon class="st0" points="204.8,52.2 197.5,52.2 197.5,45.4 204.6,45.4 204.6,43.4 197.5,43.4 197.5,38.4 204.8,38.4 
		204.8,36.4 195.3,36.4 195.3,54.2 204.8,54.2 	"/>
	<polygon class="st0" points="193,36.4 190.6,36.4 185.3,49.6 180,36.4 177.6,36.4 185.3,55.2 	"/>
	<rect x="173" y="36.4" class="st0" width="2.2" height="17.8"/>
	<polygon class="st0" points="154.9,40.9 168.2,54.9 168.2,36.4 166,36.4 166,49.6 152.6,35.5 152.6,54.2 154.9,54.2 	"/>
	<path class="st0" d="M142.1,54.6c4.1,0,6.5-3,6.5-6.9V36.4h-2.2v10.5c0,2.9-0.9,5.6-4.3,5.6c-3.4,0-4.3-2.7-4.3-5.6V36.4h-2.2v11.3
		C135.6,51.6,138,54.6,142.1,54.6L142.1,54.6z"/>
	<path class="st0" d="M219.2,41.5c0-1.7-0.8-3.4-2.3-4.3c-1.4-0.8-3.1-0.8-4.7-0.8h-2.7v17.8h2.2v-7.5h0.9l5.2,7.5h2.7l-5.6-7.7
		C217.6,46.1,219.2,44,219.2,41.5L219.2,41.5z M212.5,44.8h-0.7v-6.4h0.6c2.2,0,4.8,0.4,4.8,3.2C217.2,44.4,214.7,44.8,212.5,44.8z"
		/>
	<path class="st0" d="M264.5,39.1c0.8,0,1.4-0.6,1.4-1.4c0-0.8-0.6-1.4-1.4-1.4c-0.8,0-1.4,0.6-1.4,1.4
		C263.1,38.5,263.7,39.1,264.5,39.1z"/>
	<path class="st0" d="M252.5,54.2h2.4l2-4.5h8.2l2,4.5h2.4L261,35.6L252.5,54.2L252.5,54.2z M257.9,47.7l3.2-7.2l3.2,7.2H257.9
		L257.9,47.7z"/>
	<path class="st0" d="M257.5,39.1c0.8,0,1.4-0.6,1.4-1.4c0-0.8-0.6-1.4-1.4-1.4c-0.8,0-1.4,0.6-1.4,1.4
		C256.1,38.5,256.7,39.1,257.5,39.1z"/>
	<polygon class="st0" points="137.8,62.7 135.6,62.7 135.6,80.6 143.2,80.6 143.2,78.5 137.8,78.5 	"/>
	<path class="st0" d="M207.9,73.6h4.6c-0.1,2.9-3.1,5.3-5.8,5.3c-3.8,0-6.9-3.5-6.9-7.3c0-4,3.1-7.2,7.1-7.2c2.2,0,4.3,1.2,5.6,2.9
		l1.6-1.5c-1.7-2.2-4.5-3.4-7.2-3.4c-5.1,0-9.2,4.2-9.2,9.3c0,4.9,4,9.2,9,9.2c5,0,8.4-3.8,8.4-8.6v-0.7h-7L207.9,73.6L207.9,73.6z"
		/>
	<rect x="192.2" y="62.7" class="st0" width="2.2" height="17.8"/>
	<polygon class="st0" points="177.9,62.9 177.9,65 185.6,65 176.6,80.8 189.2,80.8 189.2,78.7 180.2,78.7 189.2,62.9 	"/>
	<rect x="159.3" y="62.7" class="st0" width="2.2" height="17.8"/>
	<polygon class="st0" points="145.4,80.6 155,80.6 155,78.5 147.7,78.5 147.7,71.8 154.8,71.8 154.8,69.8 147.7,69.8 147.7,64.8 
		155,64.8 155,62.7 145.4,62.7 	"/>
	<path class="st0" d="M169,62.7h-2.5v17.8h2.2v-7.5h1.3c3.4,0,6.2-1.4,6.2-5.2C176.1,64.6,174.4,62.7,169,62.7z M169.3,71.1h-0.7
		v-6.4h0.6c2.2,0,4.8,0.3,4.8,3.1C174.1,70.7,171.6,71.1,169.3,71.1L169.3,71.1z"/>
	<rect x="122.3" y="12.6" class="st0" width="0.5" height="91.3"/>
	<path class="st0" d="M63.9,12.6c-25.2,0-45.7,20.5-45.7,45.7s20.5,45.7,45.7,45.7c25.2,0,45.7-20.5,45.7-45.7S89,12.6,63.9,12.6z
		 M63.9,103.4c-24.9,0-45.1-20.2-45.1-45.1S39,13.1,63.9,13.1S109,33.4,109,58.2S88.8,103.4,63.9,103.4z"/>
	<path class="st0" d="M52.7,44.7c0,0,0.2,0.1,0.2,0.1c0,0,0.1,0,0.1,0c0.1,0,0.1-0.1,0.2-0.2c0,0,0.2-0.4,0.4-0.7
		c0.1-0.2,0.2-0.4,0.6-0.3c0.1,0,0.3,0.1,0.4,0.1c0,0,0,0,0-0.1c0,0,0-0.1,0.1-0.1c0,0,0,0,0,0c0,0,0-0.1,0-0.1c0,0,0-0.1,0-0.1
		c0,0-0.1,0-0.1-0.1c-0.1,0-0.1,0-0.2-0.1c-0.5-0.2-1,0-1.2,0.4c-0.1,0.2-0.4,0.6-0.5,0.8C52.6,44.5,52.6,44.7,52.7,44.7L52.7,44.7z
		"/>
	<path class="st0" d="M52.4,43.6c0.1,0,0.3-0.1,0.3-0.1c0-0.1,0-0.2-0.1-0.3c0-0.1-0.1-0.1-0.2-0.1c-0.1,0-0.2,0-0.2,0
		s-0.2,0.1-0.2,0.1c0,0.1,0,0.2,0.1,0.3C52.1,43.6,52.3,43.6,52.4,43.6z"/>
	<path class="st0" d="M52.3,45.2c-0.1-0.1-0.2,0-0.2,0S52,45.3,52,45.4c0,0.1,0,0.3,0.5,0.4c0.2,0,0.3,0,0.4-0.2
		C53,45.4,52.6,45.4,52.3,45.2z"/>
	<path class="st0" d="M75.4,44c0.2,0,0.3-0.1,0.3-0.2c0-0.1-0.1-0.2-0.1-0.3c0-0.1-0.1-0.1-0.3-0.1c-0.1,0-0.3,0-0.3,0
		s-0.2,0.1-0.2,0.2c0,0.1,0,0.2,0.1,0.3C75.1,43.9,75.2,43.9,75.4,44z"/>
	<path class="st0" d="M80.2,55.6c0.1,0,0.2-0.1,0.2-0.2c0-0.1-0.1-0.2-0.1-0.2c0,0-0.1-0.1-0.2-0.1c-0.1,0-0.2,0-0.2,0
		s-0.1,0.1-0.2,0.1c0,0.1,0,0.2,0.1,0.2C80,55.6,80.1,55.6,80.2,55.6z"/>
	<path class="st0" d="M72.9,43.3c-0.1,0-0.2-0.1-0.3,0c-0.1,0-0.2,0.1-0.2,0.1s-0.1,0.2-0.2,0.3c0,0.1,0.1,0.2,0.2,0.2
		c0.1,0,0.2,0,0.4,0c0.2,0,0.2-0.2,0.2-0.3C73.1,43.5,73,43.4,72.9,43.3z"/>
	<path class="st0" d="M54.4,44.2c-0.1,0-0.2,0-0.2,0S54,44.3,54,44.4c0,0.1,0,0.2,0.1,0.2c0.1,0.1,0.2,0.1,0.3,0.1
		c0.1,0,0.3-0.1,0.3-0.2c0-0.1-0.1-0.2-0.1-0.2C54.6,44.3,54.5,44.3,54.4,44.2z"/>
	<path class="st0" d="M35.1,81.2l-1.6,0.4l-1.3-1.9l0.9-1.4l-0.4-0.5L29.4,83l6.1-1.3C35.5,81.8,35.1,81.2,35.1,81.2z M30.6,82.2
		l1.2-2l1.1,1.5C32.9,81.7,30.6,82.2,30.6,82.2z"/>
	<polygon class="st0" points="30.9,74.4 30.4,74.7 31.1,76 26.8,78.3 27.1,78.8 31.8,76.3 	"/>
	<polygon class="st0" points="30.3,73.4 30.1,72.8 26.4,73.4 26.4,73.4 29.5,70.4 25.3,70.1 25.3,70.1 28.5,68.2 28.3,67.6 
		23.2,70.5 28.2,70.9 24.5,74.3 	"/>
	<path class="st0" d="M27.9,65.8l-1.6-0.4L26,63l1.4-0.9l-0.1-0.7l-5.3,3.3l6,1.6C28,66.4,27.9,65.8,27.9,65.8z M23.4,64.6l2-1.2
		l0.3,1.8C25.7,65.2,23.4,64.6,23.4,64.6z"/>
	<polygon class="st0" points="27.1,58.7 27.2,58.1 23.6,57.2 23.6,57.1 27.6,55.7 23.8,53.7 23.8,53.6 27.5,53.2 27.6,52.6 
		21.8,53.3 26.2,55.6 21.5,57.2 	"/>
	<path class="st0" d="M27.9,51.5l-1.3-1l0.6-2.2l1.6-0.3l0.2-0.6l-6.1,1l4.9,3.8C27.7,52.1,27.9,51.5,27.9,51.5z M26.1,50.1
		l-1.9-1.4l2.3-0.4L26.1,50.1z"/>
	<polygon class="st0" points="25.1,43.7 29.6,45.5 29.8,44.9 25.3,43.2 25.8,41.9 25.3,41.7 24.1,44.7 24.6,44.9 	"/>
	<polygon class="st0" points="32.4,39.7 31.9,39.4 30.9,41.3 29,40.3 30,38.4 29.5,38.2 28.5,40.1 27.1,39.3 28.2,37.3 27.7,37.1 
		26.3,39.5 31.1,42.1 	"/>
	<path class="st0" d="M34,37.3l-1.9-1.4l0.1-0.1l2.9,0.1l0.4-0.6l-3,0c0.2-0.4,0.3-0.7,0.2-1.1c-0.1-0.4-0.3-0.7-0.6-0.9
		c-0.5-0.4-0.9-0.4-1.3-0.2c-0.4,0.2-0.7,0.5-1,0.9l-0.5,0.6l4.4,3.2C33.6,37.8,34,37.3,34,37.3z M31.8,35.5
		C31.8,35.5,31.8,35.5,31.8,35.5l-0.1,0.2l-1.6-1.1l0.1-0.1c0.2-0.3,0.4-0.5,0.7-0.7c0.2-0.2,0.6-0.1,0.9,0.1
		c0.3,0.2,0.5,0.5,0.4,0.8C32.1,34.9,32,35.2,31.8,35.5C31.8,35.5,31.8,35.5,31.8,35.5z"/>
	<polygon class="st0" points="94.3,38.1 94.8,37.8 93.9,36.5 97.8,33.7 97.5,33.2 93.1,36.4 	"/>
	<rect x="95.3" y="38.6" transform="matrix(0.8672 -0.498 0.498 0.8672 -6.355 53.9554)" class="st0" width="5.4" height="0.6"/>
	<path class="st0" d="M97.4,43.7l2.2-0.9l0.2,0.4c0,0,0,0.1,0,0.1c0,0,0,0.1,0,0.1c0.1,0.2,0.2,0.3,0.3,0.5c0.1,0.2,0.3,0.3,0.5,0.4
		c0.2,0.1,0.4,0.2,0.6,0.2c0.2,0,0.4,0,0.6-0.1c0,0,0,0,0,0c0,0,0,0,0,0c0.2-0.1,0.4-0.2,0.6-0.4c0.2-0.2,0.3-0.4,0.3-0.6
		c0-0.2,0-0.4,0-0.6c0-0.2-0.1-0.4-0.2-0.6c0,0,0-0.1,0-0.1c0,0,0-0.1,0-0.1l-0.3-0.8l-5,2.1C97.1,43.1,97.4,43.7,97.4,43.7z
		 M101.9,41.8l0.1,0.2c0,0,0,0,0,0c0,0,0,0,0,0c0.1,0.3,0.2,0.6,0.2,0.9c0,0.3-0.2,0.5-0.6,0.7c-0.4,0.2-0.6,0.1-0.9,0
		c-0.2-0.2-0.4-0.4-0.5-0.7l-0.2-0.4C100.1,42.6,101.9,41.8,101.9,41.8z"/>
	<path class="st0" d="M102.2,47.4c-0.1,0.3-0.2,0.6-0.3,0.9l-0.1,0.4c0,0,0,0,0,0c0,0,0,0,0,0c0,0.3-0.1,0.5-0.2,0.7
		c-0.1,0.2-0.3,0.4-0.6,0.5c-0.3,0.1-0.6,0-0.8-0.1c-0.2-0.2-0.4-0.4-0.5-0.7c-0.1-0.3,0-0.5,0.1-0.8c0.1-0.2,0.3-0.4,0.6-0.5
		l-0.3-0.5c-0.4,0.2-0.7,0.5-0.8,0.8c-0.2,0.4-0.2,0.7-0.1,1.2c0.1,0.5,0.4,0.8,0.8,1c0.4,0.2,0.8,0.3,1.3,0.2
		c0.4-0.1,0.7-0.3,0.8-0.6c0.1-0.3,0.2-0.6,0.3-1l0.1-0.4c0,0,0-0.1,0-0.1c0,0,0-0.1,0-0.1c0-0.2,0.1-0.3,0.2-0.5
		c0.1-0.2,0.2-0.3,0.4-0.3c0.2-0.1,0.5,0,0.7,0.1c0.2,0.1,0.3,0.3,0.4,0.6c0.1,0.2,0.1,0.4,0,0.6c-0.1,0.2-0.2,0.3-0.3,0.5l0.4,0.4
		c0.2-0.2,0.4-0.4,0.5-0.7c0.1-0.3,0.1-0.6,0-0.8c-0.1-0.4-0.3-0.7-0.6-0.9c-0.3-0.2-0.7-0.3-1.1-0.2
		C102.6,46.9,102.3,47.1,102.2,47.4z"/>
	<polygon class="st0" points="104.2,49.5 104.2,49.5 104.2,49.5 	"/>
	<rect x="100.2" y="53.1" transform="matrix(0.9916 -0.129 0.129 0.9916 -6.0302 13.7159)" class="st0" width="5.4" height="0.6"/>
	<polygon class="st0" points="100.5,59.7 101.1,59.7 101,57.5 103.2,57.5 103.2,59.6 103.7,59.6 103.7,57.5 105.3,57.4 105.4,59.7 
		105.9,59.6 105.9,56.8 100.5,56.9 	"/>
	<polygon class="st0" points="100.3,62.8 100.2,63.4 104.3,64.2 99.2,67.5 104.7,68.6 104.9,68 100.7,67.2 105.9,63.9 	"/>
	<path class="st0" d="M102.5,71.6c-0.4-0.1-0.7-0.1-0.9,0c-0.3,0.1-0.5,0.3-0.8,0.6l-0.3,0.3c0,0,0,0,0,0c0,0,0,0,0,0
		c-0.2,0.2-0.4,0.3-0.6,0.5c-0.2,0.1-0.4,0.1-0.7,0c-0.3-0.1-0.5-0.3-0.6-0.6c-0.1-0.3-0.1-0.6,0-0.8c0.1-0.3,0.3-0.5,0.5-0.6
		c0.3-0.1,0.5-0.1,0.8-0.1l0-0.6c-0.4-0.1-0.8,0-1.2,0.2c-0.3,0.2-0.6,0.5-0.7,0.9c-0.2,0.4-0.2,0.9,0,1.3c0.2,0.4,0.5,0.7,0.9,0.9
		c0.4,0.2,0.8,0.1,1,0c0.3-0.2,0.6-0.4,0.9-0.7l0.3-0.3c0,0,0.1-0.1,0.1-0.1c0,0,0.1-0.1,0.1-0.1c0.1-0.1,0.3-0.2,0.4-0.3
		c0.2-0.1,0.3-0.1,0.5,0c0.2,0.1,0.4,0.2,0.5,0.5c0.1,0.2,0.1,0.4,0,0.7c-0.1,0.2-0.2,0.4-0.3,0.5c-0.1,0.1-0.3,0.2-0.5,0.2l0.1,0.6
		c0.3,0,0.6-0.1,0.8-0.3c0.2-0.2,0.4-0.4,0.5-0.7c0.1-0.4,0.2-0.7,0-1.1C103.1,72,102.9,71.7,102.5,71.6L102.5,71.6z"/>
	<polygon class="st0" points="101.9,74.5 101.9,74.5 101.9,74.5 	"/>
	<rect x="98.5" y="73.8" transform="matrix(0.4599 -0.888 0.888 0.4599 -14.5879 129.0723)" class="st0" width="0.6" height="5.4"/>
	<polygon class="st0" points="97.3,82.7 97.3,82.7 97.3,82.7 	"/>
	<path class="st0" d="M98.5,80c-0.3-0.2-0.6-0.3-0.9-0.2c-0.3,0.1-0.6,0.2-0.9,0.4l-0.3,0.2c0,0,0,0,0,0c0,0,0,0,0,0
		c-0.2,0.1-0.5,0.3-0.7,0.3c-0.2,0.1-0.5,0-0.7-0.1c-0.3-0.2-0.4-0.4-0.4-0.7c0-0.3,0-0.6,0.2-0.8c0.2-0.2,0.4-0.4,0.7-0.4
		c0.3-0.1,0.5,0,0.8,0.1l0.2-0.6c-0.4-0.2-0.8-0.2-1.2-0.1c-0.4,0.1-0.7,0.3-0.9,0.7c-0.3,0.4-0.4,0.8-0.3,1.3
		c0.1,0.5,0.3,0.8,0.7,1.1c0.4,0.2,0.7,0.3,1,0.2c0.3-0.1,0.6-0.2,1-0.4l0.3-0.2c0,0,0.1,0,0.1-0.1c0,0,0.1,0,0.1-0.1
		c0.1-0.1,0.3-0.2,0.5-0.2c0.2,0,0.3,0,0.5,0.1c0.2,0.1,0.3,0.3,0.4,0.6c0,0.2,0,0.5-0.2,0.7c-0.1,0.2-0.3,0.3-0.4,0.4
		c-0.2,0.1-0.4,0.1-0.6,0.1l0,0.6c0.3,0,0.6,0,0.8-0.1c0.3-0.1,0.5-0.3,0.6-0.6c0.2-0.3,0.3-0.7,0.3-1.1C99,80.5,98.9,80.2,98.5,80z
		"/>
	<path class="st0" d="M35.8,31c0.2,0,0.4-0.2,0.4-0.4c0-0.2-0.2-0.4-0.4-0.4c-0.2,0-0.4,0.2-0.4,0.4C35.3,30.8,35.5,31,35.8,31z"/>
	<path class="st0" d="M91.6,30.1c-0.2,0-0.4,0.2-0.4,0.4c0,0.2,0.2,0.4,0.4,0.4c0.2,0,0.4-0.2,0.4-0.4
		C92.1,30.3,91.9,30.1,91.6,30.1z"/>
	<path class="st0" d="M35.9,85.6c-0.2,0-0.4,0.2-0.4,0.4c0,0.2,0.2,0.4,0.4,0.4s0.4-0.2,0.4-0.4C36.4,85.8,36.2,85.6,35.9,85.6z"/>
	<path class="st0" d="M92.1,85.5c-0.2,0-0.4,0.2-0.4,0.4c0,0.2,0.2,0.4,0.4,0.4s0.4-0.2,0.4-0.4C92.5,85.7,92.3,85.5,92.1,85.5z"/>
</g>
<path d="M63.9,14.4C39.7,14.4,20,34,20,58.2c0,15.4,8,28.9,20,36.8l0.2,0.1c6.8,4.4,15,7,23.7,7c24.2,0,43.9-19.7,43.9-43.9
	S88.1,14.4,63.9,14.4L63.9,14.4z M63.9,17h1v-0.5h-1v-1.3c2.7,0.1,5.1,1.3,6.1,3h-6.1C63.9,18.2,63.9,17,63.9,17z M71.1,18.7v0.9
	H56.3v-0.9C56.3,18.7,71.1,18.7,71.1,18.7z M85.4,36.3v-5.9c8.7,6.7,13.9,17.1,13.9,28.1c0,1.5-0.1,3-0.3,4.5h-3.6c0,0,0-3.8,0-6.5
	l2,1.9l0.4-0.4l-2.4-2.3c0-1.1,0-3.6,0-3.6c0.1,0.1,0.2,0.2,0.3,0.2c0.2,0,0.3-0.2,0.3-0.3c0-0.2-0.2-0.3-0.3-0.3
	c-0.1,0-0.3,0.1-0.3,0.2v-0.9c0.1,0.1,0.2,0.2,0.3,0.2c0.2,0,0.3-0.2,0.3-0.3c0-0.2-0.2-0.3-0.3-0.3c-0.1,0-0.3,0.1-0.3,0.2v-0.9
	c0.1,0.1,0.2,0.2,0.3,0.2c0.2,0,0.3-0.2,0.3-0.3c0-0.2-0.2-0.3-0.3-0.3c-0.1,0-0.3,0.1-0.3,0.2v-0.4h-0.1c0.1-0.1,0.2-0.2,0.2-0.3
	c0-0.2-0.2-0.3-0.3-0.3s-0.3,0.2-0.3,0.3c0,0.1,0.1,0.2,0.2,0.3h-0.1v0.4c-0.1-0.1-0.2-0.2-0.3-0.2c-0.2,0-0.3,0.2-0.3,0.3
	c0,0.2,0.2,0.3,0.3,0.3c0.1,0,0.2-0.1,0.3-0.2v0.8c-0.1-0.1-0.2-0.2-0.3-0.2c-0.2,0-0.3,0.2-0.3,0.3c0,0.2,0.2,0.3,0.3,0.3
	c0.1,0,0.2-0.1,0.3-0.2v0.8c-0.1-0.1-0.2-0.2-0.3-0.2c-0.2,0-0.3,0.2-0.3,0.3c0,0.2,0.2,0.3,0.3,0.3c0.1,0,0.2-0.1,0.3-0.2v3.4l-3,0
	c0-0.1,0-11.2,0-11.2c0.1,0.1,0.2,0.2,0.3,0.2c0.2,0,0.3-0.2,0.3-0.3c0-0.2-0.2-0.3-0.3-0.3c-0.1,0-0.3,0.1-0.3,0.2v-0.9
	c0.1,0.1,0.2,0.2,0.3,0.2c0.2,0,0.3-0.2,0.3-0.3c0-0.2-0.2-0.3-0.3-0.3c-0.1,0-0.3,0.1-0.3,0.2v-0.9c0.1,0.1,0.2,0.2,0.3,0.2
	c0.2,0,0.3-0.2,0.3-0.3c0-0.2-0.2-0.3-0.3-0.3c-0.1,0-0.3,0.1-0.3,0.2v-0.4h-0.1c0.1-0.1,0.2-0.2,0.2-0.3c0-0.2-0.2-0.3-0.3-0.3
	c-0.2,0-0.3,0.2-0.3,0.3c0,0.1,0.1,0.2,0.2,0.3h-0.1v0.4c-0.1-0.1-0.2-0.2-0.3-0.2c-0.2,0-0.3,0.2-0.3,0.3c0,0.2,0.2,0.3,0.3,0.3
	c0.1,0,0.2-0.1,0.3-0.2v0.8c-0.1-0.1-0.2-0.2-0.3-0.2c-0.2,0-0.3,0.2-0.3,0.3c0,0.2,0.2,0.3,0.3,0.3c0.1,0,0.2-0.1,0.3-0.2V44
	c-0.1-0.1-0.2-0.2-0.3-0.2c-0.2,0-0.3,0.2-0.3,0.3c0,0.2,0.2,0.3,0.3,0.3c0.1,0,0.2-0.1,0.3-0.2v6.2c-1.1-4.9-3.8-8.6-5.7-9.9v-3.8
	h1.5v-0.5L85.4,36.3L85.4,36.3z M84.8,86.3c0,0-0.1,0.1-0.1,0.1c-0.1,0.1-0.2,0.2-0.3,0.2c-0.4,0.3-1,0.4-1.4,0.4
	c-0.4,0-0.8-0.3-1.1-0.6c0.6-0.8,0.4-1.9,0.4-1.9c0-0.1-0.4-3.3-0.8-4.9c-0.3-1.3-0.1-3.4,0.6-6c0.1-0.4,0.2-0.9,0.3-1.4
	c0.3-2.2,0.5-4.9,0.4-6.3c-0.1-1.4-0.9-3.4-1.2-4.2c0.1,0,0.1,0,0.2-0.1c2.8,3.3,2.8,5.6,2.8,6.9L84.8,86.3
	C84.8,86.3,84.8,86.3,84.8,86.3L84.8,86.3z M84.8,87v5.6l-1.3,0l0-5C84.1,87.4,84.5,87.2,84.8,87z M77.2,91.1c0,0,0-0.8-0.1-1.1
	c-0.1-0.5-0.2-0.9-0.3-1.2c0.1,0,0.2-0.1,0.3-0.2c0.3-0.3,0.4-0.5,0.6-0.7c0.1-0.2,0.2-0.4,0.5-0.5c0.4-0.1,0.8,0,1.1,0
	c0,0,0.1,0,0.1,0c-0.3,0.7-1,2.5-1,3.2c0,0.2,0.1,0.4,0.1,0.5h0c0,0,0,0,0,0c0.1,0.1,0.4,0.8,0.5,1c0.2,0.3,0.4,0.7,0.6,1.2
	c0.1,0.2,0.1,0.4,0,0.6c-0.2,0.4-0.8,0.5-0.9,0.6c-0.5,0-1.2,0-1.3-0.1c-0.1-0.1-0.1-0.7-0.1-1.1C77.2,93,77.2,91.2,77.2,91.1z
	 M59.1,97l1.3-1.9h0.3V97H59.1z M60.6,97.5v0.9c-0.6-0.1-1.2-0.1-1.6-0.1c-1.2,0-1.9,0.1-2.6,0.3v-3.4h3.3l-1.6,2.4
	C58.1,97.5,60.6,97.5,60.6,97.5z M46,94.6l0-2.1l-1.6,0v-1.1H47l0,0l0,0h2.4c-0.3,0.4-0.5,0.8-0.5,1c-0.1,0.4-0.1,0.9,0.7,1.4
	c0.2,0.1,0.4,0.1,0.6,0.1c0.7,0,1.5-0.3,1.7-0.7c0.2-0.3,0.2-1.1,0.1-1.8h1.1c0.1,0.2,0.3,0.5,0.5,0.6l0.1,0
	c0.2,0.1,0.4,0.2,0.6,0.2c0.3,0,0.6-0.2,1.2-0.6c0.2,0.4,0.4,0.7,0.6,0.8c0.2,0.1,0.3,0.3,0.5,0.5c0.3,0.4,0.7,0.9,1.2,0.9
	c0.1,0,0.2,0,0.4,0c0.2,0,0.4,0,0.5,0c0.7,0,1.4-0.1,1.5-0.6c0.2-0.9-0.7-1.3-1.3-1.5c-0.2-0.1-0.3-0.1-0.4-0.2c0,0,0,0,0,0h10.4
	c-0.2,0.2-0.3,0.3-0.5,0.4c-0.6,0.4-1.3,1.1-1.2,1.8c0,0.3,0.1,0.7,0.2,0.9H46L46,94.6z M43.9,77.9v14.6l-1.3,0V41.2
	c0.6,0.3,1.4,0.6,3,0.9c0,0.2,0,0.5,0,0.7c0,1.5,0.5,3,1.4,4.2c-0.8,0.6-2.1,1.5-3,2.9c-0.6,0.8-0.7,4.1-0.7,4.1
	c0,1.1,0.3,2.7,0.5,3.4c0.2,0.7,0.1,1.4,0.1,2c0,0.2-0.1,0.4-0.1,0.6c0,0.3-0.1,0.8-0.2,1.3c-0.1,0.6-0.3,1.2-0.3,1.5
	c0,0.7,0.4,1.4,0.6,1.8v10.4l-0.6,0.2L43.9,77.9L43.9,77.9z M42.5,25.6V25l5.8-3.2v8.4c-0.8-1.1-2.2-2.2-2.6-2.5v-2.1h-0.5v2.1
	c-0.4,0.3-1.6,1.2-2.6,2.1v-3.7h1.3v-0.5C43.8,25.6,42.5,25.6,42.5,25.6z M45.5,28.1c0.9,0.6,2.9,2.3,2.9,3.4v4.9h-5.8v-5.9
	C43.6,29.4,45,28.4,45.5,28.1z M49,36.9c-0.9,0.5-1.6,1.2-2.2,2c-1.9-0.4-3.4-0.8-4.3-1.3l0,0v-0.7H49z M57,25.6v-5.5h13.4v5.5h-1.1
	v0.5h1.1v10.2h-0.8c-0.4-2.9-4.9-10-5.6-11v-2.7h-0.6v2.7c-0.7,1-5.1,7.8-5.5,10.9H57V26.1h1.1v-0.5L57,25.6L57,25.6z M71.6,36.9
	c-1.2,0.7-2.2,1.7-2.8,3c-1.9-0.3-3.5-0.7-4.6-1.3c0.2-0.1,0.4-0.3,0.4-0.3c0.2-0.2,0.3-0.5,0.3-0.8c0-0.2-0.1-0.5-0.2-0.6H71.6z
	 M71,36.3v-5.4c0-0.8,2.7-2.7,3.1-3c0.8,0.6,2.7,2.2,2.8,3.2v5.1c-0.6-0.2-1.3-0.3-2-0.3c-0.8,0-1.5,0.1-2.2,0.3
	C72.8,36.3,71,36.3,71,36.3z M70.7,45.9c-0.2-0.4-0.4-0.7-0.4-1.1c0-0.4,0.2-0.6,0.3-0.9c0.2-0.3,0.4-0.6,0.3-1
	c-0.1-0.7,0.1-2.3,1.1-2.6c0.8-0.3,1.2-0.1,1.5,0.1c-0.4,0-0.7,0.2-1,0.4c-0.7,0.5-0.9,1.1-1,1.5c-0.1,0.3-0.2,1.9-0.2,2.4
	c0,0.6,0.3,1.2,0.4,1.5l0,0c0,0,0.1,0.2,0.2,0.6c0.1,0.4,0.1,1.3,0.1,1.7c-0.3,0.1-0.8,0.2-1.3,0.2c-0.2,0-0.4,0-0.5,0
	c-0.1,0-0.1,0-0.2,0c-0.4-0.1-0.8-0.2-1.1-0.3c-0.1-0.3-0.1-0.7,0-0.8c0.1-0.1,0.3,0,0.5,0c0.4,0.1,1,0.2,1.4-0.4
	C71.3,46.9,71,46.4,70.7,45.9z M79.2,47.1c0.2,0,0.3,0.1,0.5,0.1c0.2,0,0.4,0,0.5-0.1c0.1,0.1,0.8,0.9,1.2,2c-0.3-0.1-1-0.6-1-0.6
	c0,0-0.9-0.6-2-0.7c-0.4,0-1,0.2-1.3,0.3c0,0,0-0.1,0-0.1c0-0.3-0.1-0.5-0.1-0.7c0,0,0-0.1-0.1-0.2c0,0,0-0.1,0-0.1l0,0
	c-0.1-0.3-0.1-0.6,0-0.9c0.2-0.8,0.1-2.2,0.1-3c0-0.5-0.4-1.7-1.1-2.2c-0.2-0.2-0.5-0.3-0.8-0.3c0.3-0.3,0.7-0.5,1.4-0.4
	c0.3,0,0.7,0.2,0.9,0.6c0.5,0.6,0.7,1.5,0.6,2.1l0,0.2C77.6,44,77.1,46.4,79.2,47.1L79.2,47.1z M81.9,42.2c1.5-0.3,2.3-0.6,3-1v13.7
	c-0.1-0.1-0.1-0.2-0.2-0.3l-0.1-0.1c0-0.1-0.2-0.2-0.3-0.4c-0.6-0.7-2-2.3-2.3-4.4c-0.2-1.4-1-2.5-1.4-2.9c0.8-1.2,1.2-2.5,1.2-3.9
	C81.9,42.7,81.9,42.5,81.9,42.2L81.9,42.2z M81.8,41.7c-0.2-0.8-0.4-1.6-0.9-2.3c1.7-0.3,3-0.7,3.9-1.2v2.4
	C84.2,41,83.4,41.4,81.8,41.7z M66.2,65.8c-0.2-0.4-0.5-1-0.8-1.7c-0.5-1.7,2.2-3,3.3-3.6c0.2-0.1,0.3-0.1,0.4-0.2
	c0.9-0.5,2.1-1.1,3.5-0.8c0.2,0,0.4,0.1,0.7,0.1c-0.2,0.5-0.6,2-1.2,2.8c-0.8,1.1-2.1,2.6-2.6,2.9C69,65.7,68.1,67,67.9,68
	c-0.2,0.6-0.6,2.2-1.3,2.8c0.1-0.7,0.1-1.4,0.2-2.1C66.9,67.3,66.6,66.6,66.2,65.8z M66,78.5c0.5,0.6,1.2,1.4,1.5,1.7
	c-0.5,0.9-0.9,2-1.2,3.5c-0.3,1.5-0.2,2.5,0.2,3.2c0.5,0.7,1.2,0.8,1.7,0.8c0.5,0.1,1,0,1.5-0.1c0.1,0.3,0.3,1,0.3,1.5
	c0,0.2,0,0.3,0,0.4c0,0.4,0,0.7-0.3,1.1l-0.2,0.2c-0.1,0.1-0.1,0.1-0.2,0.2h-7.9c-0.1,0.1-0.7,0-0.8,0c-0.1,0-0.5,0-0.7,0
	c0,0,0,0-0.1,0l0,0h-1.7c0-0.1,0-0.3,0-0.6c1.1-0.1,2.6-0.5,2.9-0.6c0.5-0.2,0.7-0.5,0.9-0.8c0.2-0.7-0.2-1.4-0.5-1.9
	c-0.1-0.1-0.1-0.2-0.1-0.2l0,0c0,0,0,0,0,0c-0.2-0.3-0.3-0.6-0.4-0.9c-0.3-0.7-0.3-3.2,0.1-4.9c0.2-1,0.7-1.6,1.1-2.1
	c0.3-0.4,0.6-0.8,0.9-1.3c0.4-0.9,0.2-1.9,0-3.2L63,73.9c-0.2-1.1-0.3-1.9-0.1-2.8c0-0.1,0.1-0.2,0.1-0.3c0.3-0.6,0.8-1.5,0.2-3.7
	c-0.2-0.7-0.1-1.3,0-1.8c0.1-0.7,0.2-1.3-0.1-2.2c-0.2-0.7,0.1-2.1,0.3-2.7c0.5,0.9,1.3,1.5,1.7,1.8c-0.4,0.6-0.7,1.3-0.4,2
	c0.3,0.8,0.5,1.3,0.8,1.8c0.4,0.8,0.7,1.3,0.6,2.5c-0.1,0.8-0.2,1.5-0.2,2.2C65.9,72,65.8,73,65.7,74C65.5,75.2,65.3,77.6,66,78.5
	L66,78.5z M81.3,54.3c-0.5-0.5-1.4-0.2-2,0c-0.5,0.2-1.3,0.7-1.3,1.3c0,0.3,0.4,0.4,0.6,0.5c0.1,0,0.3,0.1,0.3,0.1
	c0.1,0.2,0,0.6-0.2,0.7c-0.1,0.1-0.2,0.2-0.3,0.4c-0.6-0.4-1-1.2-1-1.9c0-1.3,1.1-2.4,2.4-2.4c1.3,0,2.4,1.1,2.4,2.4
	c0,0.5-0.2,1.1-0.5,1.5c-0.2,0-0.3,0-0.4,0c-0.1,0-0.2-0.1-0.2-0.1c-0.1-0.1,0.1-0.4,0.2-0.7C81.5,55.6,81.8,54.9,81.3,54.3z
	 M78.4,58.6c0-0.3,0.6-1.1,0.8-1.2c0.3-0.3,0.4-0.8,0.3-1.2c-0.1-0.3-0.4-0.4-0.7-0.5c-0.1,0-0.2-0.1-0.2-0.1c0-0.1,0.4-0.5,0.9-0.7
	c0.6-0.2,1.2-0.3,1.4-0.1c0.3,0.3,0.2,0.7,0,1.3c-0.2,0.4-0.3,0.8-0.1,1.1c0.1,0.2,0.3,0.3,0.5,0.4c0.2,0.1,0.4,0,0.6,0
	c0.5-0.1,1.1-0.1,1.7,0.6c0.1,0.2,0,0.7-0.1,1.1c-0.1,0.5-0.3,1,0,1.3c0,0,0.1,0.1,0.1,0.1c-0.1,0.1-0.3,0.1-0.5,0.2
	c-0.4-0.5-0.4-0.7-0.9-0.8c-0.1,0-0.1-0.2-0.1-0.4c0-0.2,0-0.5-0.2-0.6c-0.3-0.1-0.7,0-1.3,0.8C80.4,60,80,60,79.7,60
	c0-0.1,0.1-0.1,0.1-0.2c0.1-0.3,0.2-0.6,0-0.7c-0.2-0.2-0.5,0-0.6,0c-0.3,0.1-0.6,0.2-1,0.3C78.3,59.1,78.3,58.8,78.4,58.6z
	 M79.2,59.7c-0.1,0.3-0.2,0.5-0.1,0.7c0,0.1,0.1,0.2,0.3,0.2h0l0.1,0c0.5,0,1.1,0,1.4-0.5c0.3-0.4,0.5-0.5,0.6-0.6v0
	c0,0.3,0,0.7,0.4,0.9c0.2,0.1,0.3,0.3,0.6,0.6c-0.6,0.3-1.5,0.5-2.4,0.5c-1.2,0-2.3-0.3-2.9-0.5c0.1-0.1,0.2-0.1,0.2-0.2
	c0.2-0.2,0.4-0.4,0.5-0.7C78.4,59.9,78.9,59.8,79.2,59.7L79.2,59.7z M80.5,61.9c0.3,0,0.5,0,0.8-0.1c0.3,0.6,1.1,2.7,1.2,4.1
	c0.1,1.4,0,4.1-0.4,6.2c0,0.1,0,0.1,0,0.2c-3-0.7-4.7,0.8-6.4,2.4c-1.2,1.1-2.4,2.3-4.2,2.8c-1.4,0.4-2.4,1-3.1,1.7
	c0.2-0.7,0.8-1.7,2-2.4c0.7-0.4,1.1-1.1,1.5-1.8c0.3-0.5,0.6-0.9,0.9-1.3c0.9-1,1.4-1.5,2.2-2.1l0.2-0.2c0.7-0.6,1.3-1.1,2.2-2.3
	c0.9-1.2,2-3.2,2.7-5.3C80.2,62.9,80.4,62.3,80.5,61.9z M81.2,79.8c0.3,1.5,0.8,4.8,0.8,4.8c0,0,0.1,1-0.3,1.6
	c-0.3,0.3-0.6,0.5-1.2,0.6c-0.5,0.1-0.8,0-1.1,0c-0.4,0-0.7-0.1-1.3,0c-0.5,0.2-0.7,0.5-0.8,0.8c-0.1,0.2-0.2,0.4-0.4,0.6
	c0,0-0.1,0-0.1,0c0.1-0.8,0.4-3,0.5-3.6c0.3-2.3-0.2-4.7-1.3-6.8c-0.4-0.8,0-2.2,0.1-2.5c0,0,0,0,0.1-0.1c1.7-1.6,3.2-2.9,6-2.3
	c0,0.2-0.1,0.5-0.2,0.7C81.3,75.4,80.8,78.1,81.2,79.8z M82.9,87.5l0,3.5h-4c-0.1-0.2-0.1-0.4-0.1-0.6c0-0.6,0.7-2.3,1-3.1
	c0.2,0,0.4,0,0.6,0c0.5-0.1,0.9-0.2,1.2-0.5C82,87.1,82.4,87.5,82.9,87.5z M70.6,89.4c0-0.1,0-0.2,0-0.4c0-0.5-0.2-1.2-0.3-1.6
	c0.4-0.1,0.8-0.1,1.3-0.2c0.4,0,0.8,0,1.1,0.1c-0.1,0.1-0.1,0.2-0.2,0.3c-0.9,1.2-0.6,2.4-0.5,2.7c0,0,0.1,0.1,0.1,0.2
	c0.2,0.3,0.5,0.8,0.4,1.3c0,0.4-0.9,0.7-1.4,0.8c-0.4,0.1-0.9,0.3-1.5,0.7c-0.5,0.3-1.3,0.8-1.8,1.1c0-0.2-0.1-0.5-0.1-0.8
	c-0.1-0.4,0.4-1,0.9-1.3c0.4-0.2,0.7-0.5,1-0.9h0v0c0.1-0.1,0.2-0.2,0.3-0.4l0.2-0.2C70.7,90.3,70.7,89.9,70.6,89.4z M72.5,90.2
	C72.4,90,72.2,89,72.9,88c0.2-0.2,0.3-0.4,0.3-0.5c0.5,0.2,0.9,0.4,1.2,0.6l0.1,0.1c0.5,0.3,1,0.6,1.6,0.6c0.1,0.2,0.3,0.6,0.4,1.2
	c0,0.3,0.1,0.7,0.1,1.1H73c-0.1-0.3-0.3-0.6-0.4-0.7C72.6,90.3,72.5,90.2,72.5,90.2z M74.1,79.3c-0.4-1.2,0-2.4,0.1-2.7
	c0.3-0.2,0.6-0.5,0.9-0.8c-0.1,0.6-0.2,1.5,0.2,2.1c1.1,2,1.5,4.3,1.2,6.5c-0.1,0.7-0.4,3.1-0.5,3.8c-0.4-0.1-0.8-0.3-1.2-0.5
	l-0.1-0.1c-0.3-0.2-0.6-0.3-1.1-0.5c0.1-0.3,0.6-1.2,0.7-1.8C74.6,84.6,74.8,81.5,74.1,79.3z M71.5,78c0.8-0.2,1.5-0.6,2.1-1
	c-0.1,0.6-0.2,1.5,0.1,2.4c0.7,2.2,0.4,5.1,0.2,5.8c-0.1,0.5-0.5,1.4-0.7,1.6c0,0-0.1,0-0.1,0.1c-0.4-0.1-0.8-0.2-1.3-0.2
	c-0.1,0-0.1,0-0.2,0c-0.6,0-1.2,0.1-1.7,0.2c-0.6,0.1-1.1,0.2-1.5,0.2c-0.5-0.1-1-0.2-1.3-0.6c-0.4-0.5-0.4-1.5-0.2-2.8
	C67.5,80.5,68.3,79,71.5,78z M53,91h-1.1c0,0,0-0.2-0.1-0.3l0.3-0.8c0.3,0.1,0.6,0.1,1,0.2C53,90.4,53,90.6,53,90.6
	C53,90.7,52.9,90.8,53,91z M45.7,83.3l1.4-0.8l1,7.2l-0.8,0.8C47.3,90.5,45.7,83.3,45.7,83.3z M46.9,91h-2.4V80.3L46.9,91z M45.4,69
	c0,0.1,0.1,0.2,0.1,0.3c-0.1,0.3-0.2,0.5-0.4,0.7c-0.2,0.3-0.4,0.6-0.4,1c-0.1,0.7,0.2,1.4,0.2,1.4l0.3,0.8l0.4,0.1
	c0,0,0.2-0.1,0.3-0.2l0.2,1.3l-1.6,0.6V65l0,0c0.2,0.2,0.4,0.3,0.6,0.4c0.1,0.1,0.3,0.2,0.4,0.3c0.2,0.3,0.2,0.6,0,1.2
	C45.2,67.6,45.1,68.3,45.4,69z M45.6,71.2l0.2,1.2c-0.1,0.1-0.2,0.1-0.3,0.2l-0.2-0.4c0,0-0.2-0.6-0.1-1.2c0-0.3,0.2-0.5,0.4-0.7
	c0.2-0.3,0.4-0.7,0.5-1.2l0,0c0.4-0.4,1-0.2,1.2-0.1c0.3,0.2,0.5,0.8,0.4,1.5c0,0,0,0,0,0c0,0,0,0.1,0,0.1c-0.3,0.4-0.9,0.9-1.5,1.4
	l-0.1-0.9C46.2,71.1,45.6,71.2,45.6,71.2z M48.1,71c0,0,0,0.1,0.1,0.1c0,0.3,0,0.7-0.1,1.2c0,0.4-0.1,0.8-0.1,1.3l-1.4,0.5l-0.2-1.5
	C46.9,72.1,47.6,71.5,48.1,71z M47.9,74.3c-0.1,1.3,0,2.8,0.2,4.4c0.2,1.2,0.3,2,0.4,2.5l-0.9,0.5l-1-7L47.9,74.3z M49.1,88.5
	l0.1,0.5l-0.5,0.4l-1-7.1l1-0.5c0,0.1,0.1,0.2,0.1,0.3c0.1,0.3,0.2,0.5,0.2,0.9c0,0.7,0,1.1-0.1,1.6c0,0.3,0,0.6-0.1,1.1
	C48.8,87,49,88.1,49.1,88.5z M51.4,90.3c-0.1,0-0.1,0-0.2,0c-0.6-0.1-1,0.2-1,0.2c0,0,0,0,0,0l-0.4-1.7c0.1,0,0.1,0.1,0.2,0.1
	c0.3,0.2,0.9,0.5,1.6,0.7C51.6,89.7,51.4,90.3,51.4,90.3z M49.3,89.6l0.3,1.4h-2.1L49.3,89.6z M50.9,90.8c0.1,0,0.2,0,0.2,0
	c0.1,0,0.3,0.2,0.3,0.3c0.2,0.6,0.1,1.7,0,1.9c-0.1,0.2-1.1,0.6-1.6,0.3c-0.5-0.3-0.5-0.5-0.5-0.7C49.5,92.2,50.3,91,50.9,90.8z
	 M53.1,89.5c-1.3-0.1-2.5-0.7-2.9-1c-0.4-0.2-0.6-0.6-0.7-0.8c-0.1-0.5-0.2-1.2-0.1-2.1c0-0.5,0-0.8,0.1-1.1c0-0.5,0.1-0.9,0.1-1.6
	c0-0.5-0.1-0.7-0.2-1.1c-0.2-0.5-0.4-1.2-0.6-3.3c-0.3-2.6-0.2-4.7-0.1-6.3c0-0.2,0-0.4,0-0.6c0,0,0,0,0,0.1l0,0c0,0,0,0,0,0
	c0,0,0-0.1,0-0.3c0.3,0.3,0.7,0.8,1,1.4c0.2,0.5,0.4,0.9,0.5,1.2c0.1,0.4,0.3,0.8,0.6,1.3c0.5,0.7,2,2,2.4,2.3
	c-0.1,0.7-0.1,1.5,0,2.4c0.1,0.6,0.2,1.1,0.2,1.6c0.2,1.5,0.3,2.3,0.2,4C53.5,87,53.3,88.5,53.1,89.5z M49.5,66
	c-0.1-0.4-0.1-0.8-0.2-1.1c-0.2-1-0.2-1.4-0.1-2.2c0.1-1-0.2-1.6-0.5-2.1c-0.1-0.1-0.2-0.3-0.3-0.4c-0.3-0.7-0.7-1.5-0.4-2.4
	c0.2-0.7,0.6-2.6,0-3.7c-0.4-0.8-1.1-1.8-1.9-2.2c-0.6-0.3-1.9-0.4-2.1-0.4c0.1-0.5,0.2-0.8,0.3-1c0.1-0.2,0.2-0.3,0.3-0.5
	c0.4,0.4,2.4,2,6.9,2h0.1c0.2,0,0.4,0,0.6,0c0.2,0.6,0.8,2.4,0.7,3c0,0.3-0.1,0.4-0.2,0.5c-0.2,0.3-0.3,0.6-0.1,1.5
	c0.1,0.5,0.2,0.9,0.3,1.2c0.1,0.5,0.2,0.8,0.2,1.2c0,0.3-0.1,0.6-0.2,0.9c-0.2,0.5-0.4,1.1-0.2,1.7c0.1,0.4,0.2,0.6,0.3,0.9
	c0.1,0.4,0.3,0.7,0.3,1.2c0.1,0.4,0,0.6-0.1,0.8c-0.1,0.2-0.2,0.4-0.2,0.9c0,0.7,0.6,1.4,1,2c0.1,0.2,0.3,0.4,0.4,0.5
	c0,0,1,2.2,1.2,2.7l0,0c0,0,0,0,0,0c0,0,0,0,0,0c-0.3,0.6-0.9,2.1-1.4,2.9c-0.3,0.5-0.9,1.8-1.2,3.4c-0.6-0.5-1.6-1.5-2.1-2
	c-0.3-0.4-0.4-0.7-0.6-1.2c-0.1-0.3-0.2-0.7-0.5-1.2c-0.5-1-1.2-1.7-1.6-1.9c0-0.1-0.1-0.2-0.1-0.2c0.1-0.1,0.1-0.3,0.2-0.4
	C48.8,69.9,49.9,68.1,49.5,66L49.5,66z M56.7,44.8c0.1,0.4,0.1,0.8-0.3,1.2c-0.4,0.4-1.1,0.2-1.5,0.1c0.1-0.1,0.2-0.2,0.3-0.3
	c0.1-0.2,1.4-1.8,1-2.9c-0.2-0.4-0.5-0.5-0.8-0.6c-0.2,0-0.3-0.1-0.4-0.2c-0.1-0.1-0.1-0.2-0.2-0.3c-0.1-0.2-0.2-0.5-0.6-0.7
	c-0.1-0.1-0.3,0-0.4,0c-0.2,0-0.4,0-0.8-0.1c-0.8-0.3-1.5,0.3-1.8,0.6c-0.1,0.1-0.1,0.2-0.2,0.4c0,0.1-0.1,0.2-0.3,0.6
	c-0.3,0.5-0.8,0.9-0.9,1c-0.1,0-0.1-0.1-0.2-0.1C49.4,43.4,49,43.1,49,43c0-0.1,0.1-0.1,0.3-0.3c0.2-0.1,0.4-0.3,0.6-0.5
	c0-0.1,0.1-0.3,0.1-0.4c0.1-0.3,0.2-0.7,0.4-0.9c0.1-0.1,0.6-0.1,0.9-0.1c0.4,0,0.7,0,0.9-0.1c0.2-0.1,0.3-0.2,0.4-0.3
	c0.2-0.1,0.3-0.3,0.5-0.3c0.3,0,0.4,0.1,0.6,0.3c0.1,0.1,0.2,0.3,0.4,0.4c0.2,0,0.4-0.1,0.5-0.1c0.2-0.1,0.4-0.2,0.5-0.1
	c0.1,0.1,0.3,0.4,0.4,0.7c0.1,0.3,0.2,0.5,0.4,0.6C56,41.9,56,42,56,42c0.1,0.1,0.3,0.3,0.7,0.5c0.1,0,0.2,0.1,0.2,0.3
	c0.1,0.3,0,0.8-0.1,1.1C56.6,44.1,56.7,44.5,56.7,44.8z M51.2,43c0.3-0.5,0.3-0.6,0.4-0.8c0-0.1,0-0.1,0.1-0.2c0,0,0.6-0.7,1.2-0.5
	c0.5,0.2,0.8,0.1,1,0.1c0.1,0,0.2,0,0.2,0c0.2,0.1,0.2,0.2,0.3,0.4c0.1,0.2,0.1,0.4,0.4,0.6c0.2,0.2,0.4,0.2,0.6,0.2
	c0.2,0,0.3,0.1,0.4,0.2c0.3,0.7-0.6,2-0.9,2.4c-0.4,0.5-1.2,1.3-1.5,1.4c-0.5,0.1-1,0-1.2-0.1c-0.2-0.1-0.8-0.6-1.1-0.9
	c0,0,0,0,0-0.1c0.2-1-0.2-1.3-0.6-1.7c0,0-0.1-0.1-0.1-0.1C50.5,43.8,50.9,43.5,51.2,43z M51.8,47.2c0.3,0.2,0.7,0.3,1.1,0.3
	c0.2,0,0.4,0,0.6-0.1c0.1,0,0.2-0.1,0.3-0.2l1.8,1c-0.3,0.1-0.6,0.3-0.8,0.5l-0.1,0.1c-0.4,0.5-0.9,1.1-1.6,1.1
	c-0.4,0-0.6-0.1-0.9-0.4c-0.3-0.2-0.7-0.5-1.3-0.6C50.4,49,50.1,49,49.8,49c-0.4,0-0.6,0-0.9-0.2c-0.5-0.3-1-1-1-1l-0.2-0.5
	c0,0,0.1-0.1,0.1-0.1c1-0.6,2.2-0.4,3-0.9C51.1,46.6,51.6,47.1,51.8,47.2z M48.6,49.3c0.4,0.2,0.7,0.2,1.2,0.2c0.3,0,0.6,0,1,0.1
	c0.5,0.1,0.8,0.3,1.1,0.5c0.3,0.2,0.7,0.5,1.1,0.5c0,0,0.1,0,0.1,0c0.9-0.1,1.5-0.8,1.9-1.3l0.1-0.1c0.4-0.4,1.1-0.5,1.1-0.5l0.1,0
	l0,0c0.2,0.3,0.6,1.2,1,1.5c-0.2,0.1-1.9,1.3-5.6,1.3h-0.1c-4.5,0-6.3-1.6-6.6-1.9c0.7-0.8,1.5-1.4,2.1-1.9l0.2,0.4
	C47.4,48.1,47.9,49,48.6,49.3z M62.8,67.3c0.1,0.3,0.1,0.6,0.2,0.9c-0.4,0.2-1.4,0.8-1.8,2.4c-0.2,1-0.3,1.6-0.4,2.1
	c-0.1,0.4-0.1,0.7-0.2,1c-0.2,0.5-2.2,3-3.2,4c-0.1-0.2-0.1-0.3-0.1-0.4c-0.1-0.4,0.2-0.9,0.5-1.3c0.3-0.5,0.7-1,0.7-1.6
	c0-0.5-0.1-0.7-0.2-0.9c-0.2-0.3-0.4-0.8-0.3-2.5c0.1-2.6,0.5-4.4,0.6-4.8c0.6-0.6,1.8-1.7,2.1-1.9c0.2,0.1,0.5,0.2,0.7,0.2
	c0,0,0.1,0,0.1,0c0.5-0.1,1-0.4,1.3-0.7c0.1,0.6,0,1.1-0.1,1.6C62.7,65.8,62.6,66.5,62.8,67.3z M62.5,74l0.1,0.4
	c0.2,1.3,0.3,2.2,0,2.9c-0.2,0.5-0.5,0.8-0.8,1.2c-0.5,0.6-0.9,1.2-1.2,2.3c-0.4,1.7-0.5,4.3-0.1,5.2c0.1,0.3,0.3,0.6,0.5,0.9
	c0,0,0,0,0,0h0c0,0.1,0.1,0.1,0.1,0.2c0.2,0.4,0.6,1,0.5,1.4c-0.1,0.2-0.3,0.4-0.6,0.5c-0.3,0.1-1.7,0.5-2.7,0.6
	c-0.1-1.2-0.2-2.9-0.4-3.6c-0.3-1.3,0.1-3.3,0.4-4.4c0.3-1.1-0.2-2.6-0.6-3.7c1-0.9,3.3-3.7,3.5-4.4c0.1-0.3,0.2-0.6,0.2-1.1
	c0.1-0.5,0.2-1.1,0.4-2c0.3-1.2,0.9-1.7,1.3-2c0,1-0.2,1.5-0.4,1.9c-0.1,0.1-0.1,0.3-0.2,0.4C62.2,72,62.3,72.9,62.5,74z M62.7,63
	c-0.3,0.3-0.8,0.8-1.2,0.8c-0.8,0.1-1.7-1-2-1.6c0.5-0.5,1.4-1.6,1.7-1.8c0.2-0.1,0.4-0.2,0.5-0.1c0.5,0.1,0.9,0.8,1.1,1.1
	C62.7,61.9,62.7,62.5,62.7,63z M58.9,62.3c0,0,0.2,0.3,0.5,0.7l-0.8,0.2l-1.9-7.9l1.4-0.3l1.5,6.2C59.3,61.6,59,61.9,59,62l-0.1,0.1
	L58.9,62.3z M60.9,59.9c-0.2,0.1-0.5,0.4-0.8,0.8l-1.4-5.8l1.9-0.5l1.2,5.2C61.5,59.6,61.2,59.7,60.9,59.9z M56.1,55l2.2,8.9
	l1.5-0.4c0.1,0.1,0.3,0.3,0.4,0.4c-0.3,0.3-1.7,1.4-2.2,2.1c-0.6,0.8-0.9,1.7-1.1,2.6c-0.2,0.7-0.5,1.3-0.8,1.8
	c-0.4-0.9-1.3-2.8-1.5-3c-0.4-0.5-0.9-1.2-0.9-1.7c0-0.3,0.1-0.5,0.1-0.7c0.1-0.2,0.2-0.5,0.1-1c-0.1-0.6-0.2-0.9-0.4-1.3
	c-0.1-0.2-0.2-0.5-0.3-0.8c-0.1-0.4,0.1-0.9,0.2-1.4c0.1-0.4,0.3-0.7,0.3-1.1c0-0.2,0-0.4-0.1-0.5h0c0,0,0-0.3,0.5-1.1
	c0.3-0.4,0.3-0.8,0.3-1.1c0.1-0.6,0.2-1.2,1.1-2.4c1.3-1.6,2.1-2.2,2.3-2.3c0.4,0.6,1.3,1.8,1.7,2.3L56.1,55L56.1,55z M55.3,53.8
	c-1,1.3-1.1,2-1.2,2.6c0,0.3-0.1,0.6-0.3,0.9c-0.1,0.2-0.2,0.4-0.3,0.5c-0.1-0.3-0.2-0.6-0.3-1.1c-0.2-0.7-0.1-0.9,0-1.1
	c0.1-0.2,0.2-0.4,0.3-0.7c0.1-0.8-0.4-2.5-0.6-3.1c2.7-0.2,4.2-1,4.7-1.3c0,0,0,0.1,0,0.1c0,0.2,0.1,0.5,0.2,0.7
	C57.5,51.5,56.6,52.2,55.3,53.8z M53.5,90.7c0,0,0.5-2.8,0.7-5c0.2-1.7,0-2.6-0.2-4.1c-0.1-0.5-0.1-1-0.2-1.6c-0.4-2.8,1-5.5,1.3-6
	c0.5-0.9,1.2-2.5,1.4-3.1c0,0,0,0,0,0c0,0,0,0,0,0c0-0.1,0.1-0.2,0.1-0.2l0,0c0.4-0.6,0.7-1.3,0.9-2.1c0.1-0.5,0.3-0.9,0.5-1.3
	c-0.2,0.8-0.3,2.1-0.4,3.6c-0.1,1.9,0.2,2.4,0.4,2.8C58,73.8,58,74,58,74.3c0,0.4-0.3,0.9-0.6,1.3c-0.4,0.5-0.8,1.1-0.6,1.7
	c0.1,0.3,0.2,0.6,0.3,1.1c0.4,1,0.8,2.4,0.6,3.4c-0.4,1.4-0.7,3.3-0.4,4.6c0.3,0.9,0.4,3.4,0.5,4.4c-0.3-0.2-0.7-0.4-1.3-0.3
	c-0.5,0.1-0.8,0.2-0.9,0.3c-0.1,0-0.2,0.1-0.2,0.2c-0.9,0.8-1,0.8-1.5,0.6l-0.1,0C53.4,91.5,53.5,90.7,53.5,90.7L53.5,90.7z
	 M56.6,91c0.7-0.1,1.1,0.4,1.4,0.7c0.1,0.1,0.2,0.2,0.3,0.3c0.1,0.1,0.3,0.1,0.5,0.2c0.6,0.3,1.1,0.5,1,0.9
	c-0.1,0.3-1.1,0.2-1.5,0.2c-0.1,0-0.3,0-0.4,0c-0.3,0-0.6-0.4-0.8-0.7c-0.2-0.3-0.4-0.5-0.7-0.7c-0.1-0.1-0.3-0.3-0.5-0.7
	C55.9,91.2,56.1,91.1,56.6,91L56.6,91z M72.8,59c-1.6-0.4-2.9,0.4-3.9,0.9c-0.1,0.1-0.2,0.1-0.4,0.2c-0.8,0.4-2,1-2.8,1.8
	c-0.4-0.3-1.3-1.1-1.7-2c2.1-1.3,5.2-3,5.8-2.8c2.1,0.6,3.2,0.1,3.7-0.1c0.1,0,0.2-0.1,0.2-0.1c0.2,0,0.3,0,0.6,0.1
	c0.2,0.1,0.5,0.1,0.8,0.2c1.1,0.2,1.3,0.5,1.3,0.6c0,0.2-0.1,0.4-0.4,0.7C75,59.4,73.5,59.1,72.8,59z M69.8,56.6
	c-1-0.3-4.8,2.1-6.1,2.8c-0.1-0.2-0.1-0.4-0.1-0.5c-0.1-0.6,0.4-1.5,0.8-1.9c0.1-0.1,2.2-1.9,2.6-5.5c0.1-1,1.5-2.2,1.9-2.4
	c0.3,0.1,0.6,0.2,1.1,0.3c0.2,0,0.3,0,0.4,0c0,0,0,0,0,0c0.1,0,0.2,0,0.3,0c0,0,0.1,0,0.1,0c0.5,0,1-0.1,1.3-0.2
	c0,0.4-0.1,0.9-0.2,1.2c0,0.1-0.1,0.2-0.1,0.3c-0.2,0.5-0.3,0.9-0.3,1.1c0,0,0,0.1,0,0.1c0,0.3,0.1,1.1,0.9,1.3
	c0.3,0.1,0.6,0.1,1,0.1c0.5,0,1-0.1,1.4-0.3c0.6-0.3,1.4-1.1,1.7-2.2c0.1-0.2,0.1-0.5,0.2-0.7c0.1-0.5,0.3-1.3,0.3-1.3
	c0.2-0.1,0.8-0.3,1.3-0.3c0.6,0,1.1,0.2,1.5,0.5c0.6,0.5,1.2,0.8,1.6,0.8c0,0.1,0,0.1,0,0.2c0,0.1,0,0.1,0,0.2c-0.2-0.1-0.6-0.1-1,0
	c-1,0.1-2.5,0.9-2.9,1.6c-0.8,1.3-2.7,1.8-2.7,1.8c-0.5,0.2-2.6,0.9-2.8,1c-0.5,0.3-1.8,1.8-2.1,2.3C70,56.6,69.9,56.6,69.8,56.6
	L69.8,56.6z M72.6,46.9c0.4,0,0.7-0.2,0.9-0.4c0.2-0.1,0.4-0.3,0.6-0.3c0.3,0,0.5,0.1,0.8,0.3c0.3,0.2,0.8,0.5,1.3,0.5
	c0,0.1,0.1,0.2,0.1,0.3h0c0,0.2,0.1,0.5,0.1,0.8c0,0.3-0.2,1.1-0.3,1.8C76.1,50,76,50.3,76,50.5c-0.2,0.9-0.9,1.6-1.4,1.9
	c-0.5,0.2-1.3,0.3-2.1,0.1c-0.4-0.1-0.5-0.4-0.5-0.8c0-0.1,0-0.1,0-0.1c0-0.1,0.2-0.6,0.3-0.9c0-0.1,0.1-0.2,0.1-0.3
	c0.1-0.4,0.3-1.5,0.3-1.7C72.6,48.5,72.6,47.4,72.6,46.9z M75.4,41.3c0.3,0.2,0.6,0.7,0.7,1.2c-0.8-0.1-1.6,0.1-1.7,0.2l0.2,0.5
	c0.1-0.1,0.9-0.3,1.6-0.1c0,0,0,0,0,0.1c0.1,0.6,0.2,2.1,0,2.9c0,0.2-0.1,0.3-0.1,0.5c-0.4,0-0.7-0.2-1-0.4
	c-0.3-0.2-0.7-0.4-1.2-0.4c-0.4,0-0.6,0.2-0.9,0.4c-0.2,0.2-0.4,0.3-0.7,0.3c0,0,0-0.1,0-0.1c0,0,0,0,0,0c0,0,0,0,0,0
	c0,0,0-0.1,0-0.1c-0.1-0.2-0.3-0.8-0.4-1.4c0-0.3,0-1.1,0.1-1.7l0,0c0,0,0.1-0.1,0.5-0.1c0.3,0,0.6,0,0.8,0.2c0,0.1,0.1,0.3,0.1,0.4
	c-0.1,0.7-0.3,1.4-0.4,1.6c0,0,0.5,0,0.6,0c0-0.1,0.4-1.5,0.4-1.5c0.1-0.4,0-0.7-0.1-0.9c-0.3-0.4-0.9-0.4-1.3-0.4
	c-0.2,0-0.3,0-0.5,0c0,0,0,0,0,0c0.1-0.4,0.2-0.8,0.8-1.2C73.4,40.8,74.7,40.8,75.4,41.3z M68.8,47.2c-0.6,0.3-0.4,1-0.3,1.4
	c-0.5,0.4-1.9,1.6-2,2.8c-0.3,2.7-1.7,4.6-2.4,5.1c-0.6,0.5-1.1,1.7-1,2.4c0,0.4,0.1,0.7,0.3,1l0,0c-0.1,0.1-0.2,0.4-0.3,0.7
	c-0.2-0.2-0.4-0.5-0.6-0.6L61,53.8L60.4,54c-0.4-0.5-1.8-2.3-2.1-2.7c-0.1-0.2-0.2-0.4-0.2-0.7c-0.1-0.4-0.1-0.7-0.4-1
	c-0.2-0.2-0.7-0.9-0.9-1.4c1.5-1.2,2.4-3,2.5-4.9c1.7-0.3,3.2-0.8,4.4-1.3c1.3,0.6,2.8,1,4.4,1.3c0.1,1.5,0.4,2.8,1,3.8
	C69,47.2,68.9,47.2,68.8,47.2L68.8,47.2z M68.1,42.8c-1.6-0.3-3-0.7-4.3-1.3l0,0c0,0,0,0,0,0c0,0,0,0,0,0l0,0
	c-1.1,0.5-2.6,1-4.3,1.3c0-0.9-0.2-1.7-0.5-2.4c2-0.3,3.7-0.8,4.9-1.4c1.2,0.6,2.9,1.1,4.9,1.4C68.3,41.1,68.1,41.9,68.1,42.8z
	 M64.7,34.6C64.7,34.6,64.7,34.7,64.7,34.6c0,0.7,0.5,1.1,1.2,1.1h0c0.4,0,0.7-0.2,1-0.4c0.3-0.3,0.4-0.7,0.4-1.1
	c-0.1-0.7-0.6-1.3-1.4-1.5h0c0-1-0.8-1.8-1.7-1.8v0.5c0.6,0,1.1,0.5,1.1,1.2c-0.7,0-1.3,0.4-1.6,1c-0.3-0.6-0.9-1-1.6-1
	c0-0.7,0.5-1.2,1.1-1.2v-0.5c-0.9,0-1.7,0.8-1.7,1.8h0c-0.8,0.2-1.3,0.8-1.4,1.5c0,0.4,0.1,0.8,0.4,1.1c0.3,0.3,0.6,0.4,1,0.4h0
	c0.7,0,1.2-0.4,1.2-1.1c0,0,0,0,0,0h-0.5l0,0c0,0.4-0.4,0.6-0.7,0.6c-0.2,0-0.4-0.1-0.6-0.3c-0.2-0.2-0.2-0.4-0.2-0.7
	c0-0.6,0.6-1.1,1.3-1.1h0c0.8,0,1.4,0.6,1.4,1.5v1.7h-5c0.4-2.9,4.2-8.9,5.2-10.4c1,1.5,5,7.8,5.3,10.4h-5v-1.7
	c0-0.9,0.6-1.5,1.4-1.5h0c0.7,0,1.2,0.5,1.3,1.1c0,0.2-0.1,0.5-0.2,0.7c-0.2,0.2-0.4,0.3-0.6,0.3h0c-0.3,0-0.6-0.2-0.7-0.6v0
	L64.7,34.6L64.7,34.6z M63.7,36.9c0.4,0,0.6,0.3,0.6,0.6c0,0.3-0.3,0.6-0.6,0.6c-0.3,0-0.6-0.3-0.6-0.6
	C63.1,37.2,63.3,36.9,63.7,36.9z M62.7,36.9c0,0.1-0.1,0.1-0.1,0.2c-0.1,0.1-0.1,0.3-0.1,0.5s0,0.3,0.1,0.5c0,0.1,0.1,0.2,0.2,0.3
	c0,0,0.2,0.2,0.4,0.3c-1.1,0.5-2.8,1-4.6,1.3c-0.6-1.3-1.6-2.3-2.8-3C55.8,36.9,62.7,36.9,62.7,36.9z M56.4,25.6H55v0.5h1.4v3.8
	c-1-1.2-2.2-2-2.8-2.4v-2.1h-0.5v2.1c-0.4,0.3-1.8,1.4-2.6,2.5v-8.2l6,2.7V25.6z M53.3,27.9c0.5,0.3,3,2.3,3.1,3.2v5.2h-1.8
	c-0.7-0.2-1.4-0.3-2.2-0.3c-0.7,0-1.4,0.1-2,0.3v-5C50.6,30.2,52.5,28.5,53.3,27.9z M52.4,36.5c3.5,0,6.4,2.9,6.4,6.4
	c0,2-0.9,3.9-2.5,5.1l-2.1-1.1c0.1-0.1,0.4-0.3,0.4-0.3c0,0,0.1,0,0.1,0c0.4,0.1,1.5,0.5,2.2-0.2c0.5-0.6,0.5-1.2,0.4-1.7
	c0-0.3-0.1-0.5,0-0.7c0.2-0.4,0.4-1,0.2-1.5c-0.1-0.3-0.3-0.5-0.5-0.6c-0.3-0.1-0.4-0.2-0.5-0.3c-0.1-0.1-0.1-0.2-0.2-0.2
	c-0.1,0-0.2-0.3-0.2-0.4c-0.1-0.4-0.3-0.8-0.6-0.9c-0.4-0.2-0.7,0-1,0.1c-0.1,0-0.2,0.1-0.2,0.1c0,0-0.1-0.1-0.1-0.1
	c-0.2-0.2-0.4-0.6-1-0.6c-0.4,0-0.6,0.2-0.8,0.4c-0.1,0.1-0.2,0.2-0.3,0.2c-0.1,0.1-0.4,0.1-0.7,0.1c-0.5,0-0.9,0.1-1.2,0.3
	c-0.3,0.3-0.5,0.7-0.6,1.1c0,0.1-0.1,0.3-0.1,0.3c-0.1,0.1-0.2,0.2-0.4,0.3c-0.2,0.1-0.5,0.3-0.5,0.7c0,0.4,0.5,0.7,0.9,1
	c0.2,0.1,0.6,0.5,0.6,0.5c0.4,0.4,0.6,0.6,0.4,1.3c-0.1,0.4-0.4,0.5-0.8,0.5c-0.1,0-1.5,0.2-2.1,0.6c0,0-0.1,0.1-0.1,0.1
	c-0.9-1.1-1.4-2.5-1.4-3.9C46,39.4,48.9,36.5,52.4,36.5L52.4,36.5z M49.9,36.3h-0.9V21.5l0.4-0.2l0.5,0.3V36.3L49.9,36.3z
	 M46.5,39.4c-0.4,0.7-0.7,1.4-0.9,2.2c-1.7-0.3-2.6-0.7-3.1-1v-2.4C43.4,38.6,44.8,39,46.5,39.4z M43.8,62.9c0-0.2,0.1-0.8,0.2-1.4
	c0.1-0.6,0.2-1.1,0.3-1.4c0-0.2,0-0.3,0.1-0.6c0.1-0.6,0.2-1.4-0.1-2.2c-0.2-0.6-0.5-2.2-0.5-3.2c0-0.7,0.2-2.3,0.2-2.3
	c0.4,0,1.5,0.1,1.9,0.4c0.5,0.2,1.1,0.9,1.6,2c0.5,1,0.1,2.8-0.1,3.3c-0.3,1.1,0.1,2.1,0.5,2.8c0.1,0.2,0.2,0.3,0.3,0.5
	c0.3,0.5,0.6,0.9,0.5,1.7c-0.1,0.9-0.1,1.4,0.1,2.4c0.1,0.3,0.1,0.7,0.2,1.1c0.3,1.9-0.3,3-0.7,3.9c0,0,0,0,0,0
	c-0.1-0.6-0.3-1.2-0.7-1.4c-0.7-0.3-1.3-0.3-1.7,0c-0.1-0.5,0-1,0.1-1.5c0.1-0.6,0.3-1.2-0.2-1.7c-0.1-0.1-0.3-0.3-0.5-0.4
	c-0.2-0.1-1.1-0.7-1.3-1.2C43.9,63.5,43.8,63.2,43.8,62.9L43.8,62.9z M46.1,74.9l1,7l-1.5,0.8l-1.6-7L46.1,74.9z M67.5,95.2
	c0.3,0.2,1.1,0.7,1.4,1.1c0.2,0.3,0.2,0.5-0.1,0.8c-0.1,0.1-0.8,0.7-1.3,1.1c-0.3-0.3-0.9-0.9-1.2-1.2c-0.1-0.1-0.3-0.3,0.1-0.7
	C66.4,96.2,67.1,95.6,67.5,95.2z M69.2,97.5c0.6-0.7,0.4-1.2,0.1-1.5c-0.2-0.3-0.6-0.6-1-0.8h4.1l-0.5,0.5c0,0-0.3,0.4-0.3,0.8
	c0,0.2,0.1,0.4,0.3,0.6c0.5,0.4,0.7,0.5,0.7,0.5l0.3-0.4c0,0-0.2-0.1-0.7-0.5c-0.1-0.1-0.1-0.1-0.1-0.2c0-0.1,0.1-0.3,0.1-0.3
	l0.9-0.8c0.2,0.1,0.7,0.4,1.1,0.8c0,0,0.2,0.2,0,0.6C74,96.8,73.8,97,73.8,97l-1.6,1.8c-0.9-0.3-1.7-0.5-3.3-0.5c-0.2,0-0.4,0-0.6,0
	C68.7,98,69.1,97.6,69.2,97.5z M68.5,94.6c0.4-0.3,1-0.6,1.3-0.8c0.6-0.3,1-0.5,1.4-0.6c0.1,0,1.7-0.3,1.8-1.3c0-0.1,0-0.3,0-0.4
	h3.6c0,0.1,0,0.2,0,0.3c0,0.4,0,0.7,0,0.9c0,0.1,0,0.4,0,0.6c0,0.5,0,1.1,0.2,1.4C76.8,94.6,68.5,94.6,68.5,94.6z M80,94.1
	c0.2-0.3,0.2-0.7,0-1.1c-0.2-0.5-0.5-0.9-0.7-1.3c-0.1-0.1-0.1-0.2-0.2-0.3h3.8l0,1.1h-1.2v2.1h-2.3C79.7,94.5,79.9,94.3,80,94.1z
	 M82.5,61.5c0.8-0.3,1.3-0.6,1.5-0.7c0.5,0.3,1.3,0.7,1.7,0.9c0,0.1,0,0.1-0.1,0.2c-0.1,0.4-0.2,0.6-0.2,0.9c0,1.4,0.7,2.3,1.2,3.1
	c0.3,0.5,0.6,0.8,0.6,1.2c0,0.2-0.1,0.4-0.2,0.5c-0.4,0.4-1.2,0.5-1.6,0.5v-0.1C85.3,66.5,84.9,64.4,82.5,61.5z M87.3,68v1.8h-1.9
	v-1.3C85.8,68.5,86.7,68.4,87.3,68z M85.4,79.8c0.1,0.2,0.3,0.3,0.4,0.5c0.5,0.5,1.2,0.8,2,0.8h0c2.1,0,2.5-1.8,2.5-2.3
	c0-0.3,0-0.6-0.1-0.9c0,0-0.2-0.4-0.2-0.4c-0.5-0.9-0.4-2.7,0.3-3.2c0.3-0.2,0.6-0.3,0.9-0.2c0.2,0.1,0.4,0.2,0.5,0.4
	c0.1,0.2,0.1,0.5,0,0.7c-0.1,0.2-0.3,0.3-0.6,0.3l0,0.5h0c0.4,0,0.8-0.2,1-0.5c0.2-0.4,0.2-0.8,0-1.2c-0.2-0.4-0.5-0.6-0.9-0.7
	c-0.4-0.1-0.9,0-1.4,0.3c-0.7,0.5-1,1.9-0.8,2.9c-0.3-0.1-0.6-0.2-1.1-0.2c-0.6,0-1.1,0.3-1.4,0.7c-0.2,0.4-0.3,1,0,1.4
	c0.2,0.4,0.6,0.6,1.1,0.6h0l0-0.5c-0.3,0-0.5-0.1-0.7-0.3c-0.1-0.2-0.1-0.6,0-0.8c0.1-0.2,0.4-0.5,0.9-0.5c0.5,0,0.9,0.1,1.2,0.4
	c0.4,0.4,0.4,1,0.4,1.3c0,0-0.1,1.7-2,1.7c0,0,0,0,0,0c-0.8,0-1.3-0.4-1.6-0.7c-0.5-0.5-0.8-1.1-0.8-1.8v-0.6l4.6-5.1h3.1V72h-3.4
	l-4.4,4.8v-6.4h7.7v-0.5h-1.4l0-6.3l6.1,0c-1.1,0.8-3.5,2.6-3.7,2.8c-0.3,0.3-0.7,0.7-0.7,1.6c0,0.4,0.2,0.8,0.5,1.2
	c0.4,0.4,0.9,0.6,1.3,0.6c0.6,0,1.5-0.4,1.6-1.4c0-0.4-0.2-0.8-0.4-1c-0.2-0.2-0.5-0.3-0.8-0.3c-0.6,0-0.9,0.6-0.9,1l0.5,0
	c0-0.1,0.1-0.4,0.4-0.5c0.2,0,0.3,0,0.4,0.1c0.1,0.1,0.2,0.3,0.2,0.6c0,0.7-0.8,0.9-1.1,0.9c-0.3,0-0.7-0.1-1-0.4
	c-0.2-0.2-0.3-0.4-0.3-0.8c0-0.8,0.3-1,0.5-1.3c0.3-0.2,4.3-3.2,4.3-3.2h0.2c-1.3,9.1-6.2,17.4-13.5,23L85.4,79.8L85.4,79.8z
	 M87.5,50.6c-0.3-0.9-0.9-1.9-1.6-3c0.5-1.4,1.1-2.5,1.8-3.6c0.6,0.9,1.2,2,1.7,3.2C88.5,48.3,87.9,49.5,87.5,50.6z M89.6,47.9
	c0.9,2.3,1.5,4.9,1.5,7.8l0,14.1h-3.3V52.1C87.8,51,88.6,49.3,89.6,47.9L89.6,47.9z M91.7,56.1h3.1V63h-3.1L91.7,56.1z M87.3,43.5
	c-0.7,1.1-1.4,2.3-1.9,3.8v-5.8C86,41.9,86.6,42.6,87.3,43.5z M87.2,52.1L87.2,52.1l0,13.7c-0.1-0.1-0.1-0.2-0.2-0.3
	c-0.5-0.7-1.1-1.6-1.1-2.8c0-0.1,0.1-0.4,0.2-0.7c0.2-0.6,0.5-1.5,0.5-2.6c0-0.8-0.4-2.1-1.2-3.6v-8C86.5,49.3,87.2,51.1,87.2,52.1z
	 M86.1,59.5c0,0.7-0.1,1.3-0.3,1.8c-0.8-0.4-1.8-1-2-1.2c-0.1-0.1,0-0.5,0.1-0.8c0.2-0.6,0.3-1.1,0-1.5c-0.5-0.6-1.1-0.8-1.5-0.8
	c0.2-0.4,0.4-0.9,0.4-1.4c0-1.6-1.3-2.9-2.9-2.9s-2.9,1.3-2.9,2.9c0,0.9,0.5,1.8,1.2,2.4c-0.2,0.3-0.3,0.5-0.3,0.7
	c-0.1,0.6-0.2,1.5-0.6,1.9c-0.2,0.1-0.3,0.2-0.5,0.3c-0.1,0-0.3,0.1-0.3,0.2c0,0.1,0,0.1,0.1,0.2c0,0,0,0,0,0c0,0,0.1,0.1,0.2,0.1
	c0.6,0.3,2,0.7,3.2,0.8c-0.1,0.3-0.2,0.9-0.5,1.7c-0.6,2-1.8,4-2.6,5.1c-0.9,1.2-1.5,1.7-2.1,2.2l-0.2,0.2c-0.8,0.7-1.3,1.2-2.2,2.1
	c-0.4,0.4-0.7,0.9-1,1.4c-0.4,0.7-0.8,1.3-1.3,1.6c-1.8,1.1-2.3,2.5-2.4,3.2c-0.4-0.4-0.9-0.9-1.2-1.4c-0.5-0.7-0.5-2.6-0.2-4.1
	c0.1-0.8,0.2-1.6,0.3-2.5c0.9-0.5,1.5-2,1.9-3.4c0.3-0.9,1.1-2.1,1.5-2.4c0.6-0.4,1.9-1.9,2.7-3c0.7-1,1.2-2.6,1.3-3.1
	c0.8,0,1.7-0.1,2.4-0.8c0.5-0.5,0.7-0.9,0.6-1.2c-0.1-0.5-0.7-0.8-1.7-1c-0.3-0.1-0.5-0.1-0.7-0.2c0.1,0,0.2-0.1,0.4-0.2
	c0.5-0.2,0.8-0.3,1.1-0.3l0-0.5c-0.5,0-0.8,0.1-1.3,0.3c-0.7,0.3-1.1,0.5-1.2,0.5c-0.1,0-0.2,0.1-0.3,0.1c-0.4,0.2-1.2,0.5-2.6,0.3
	c0.6-0.7,1.5-1.7,1.8-1.9c0.4-0.3,1.8-0.7,2.7-1c0.3-0.1,0.6-0.2,0.7-0.2c0.7-0.2,1.8-1.1,2.2-1.7c0.3-0.5,1.6-1.2,2.5-1.3
	c0.6-0.1,1,0,1.1,0.1c0.5,1.8,1.7,3.2,2.3,3.8c0.1,0.1,0.2,0.3,0.3,0.3l0.1,0.1C85.8,57.5,86.1,58.8,86.1,59.5z M84.9,36.3H79v-5
	c0-1,2-2.7,3-3.4c0.4,0.3,1.8,1.2,2.9,2.2V36.3z M84.9,25.6h-1.2v0.5h1.2v3.3c-1-0.9-2.2-1.6-2.6-1.9v-2.1h-0.5v2.1
	c-0.5,0.3-1.9,1.5-2.7,2.6v-8.3l5.8,3.2V25.6z M84.9,36.9v0.6c-0.9,0.5-2.4,0.9-4.3,1.3c-0.6-0.8-1.3-1.5-2.2-2H84.9z M78.4,36.3
	h-0.9V21.5l0.5-0.3l0.4,0.2V36.3L78.4,36.3z M81.4,42.9c0,1.3-0.4,2.5-1.1,3.6c-0.2,0.1-0.6,0.2-0.9,0.1c-1.6-0.5-1.2-2.5-1.1-3.5
	l0-0.2c0.1-0.8-0.1-1.8-0.7-2.5c-0.4-0.5-0.9-0.8-1.3-0.8c-1.2-0.1-1.7,0.4-2,0.8l0,0c-0.3-0.4-1-1.1-2.4-0.5
	c-1.3,0.5-1.5,2.5-1.4,3.2c0,0.3-0.1,0.4-0.3,0.7c-0.2,0.3-0.4,0.6-0.4,1.2c0,0.5,0.3,1,0.5,1.4c0.2,0.4,0.4,0.7,0.3,0.8
	c-0.2,0.3-0.4,0.3-0.7,0.2c-0.8-1-1.2-2.5-1.2-4.3c0-3.5,2.9-6.4,6.4-6.4C78.5,36.5,81.4,39.4,81.4,42.9z M77,29.9
	c-0.8-1.1-2.1-2.1-2.6-2.4v-2.1h-0.5v2.1c-0.4,0.3-1.8,1.3-2.9,2.3v-3.7h1.4v-0.5H71v-1.1l6-2.7C77,21.8,77,29.9,77,29.9z
	 M63.4,16.5h-0.9V17h0.9v1.1h-6c0.9-1.7,3.3-2.9,6-3V16.5z M20.5,58.2c0-23,18-41.8,40.6-43.3c-2,0.5-3.6,1.7-4.3,3.2h-1.1v1.9h0.7
	v3.8l-6.9-3.1v-3.1h-0.4v3l-6.6,3.6v-2.2H42l0,3.4h-1.3v0.5H42v4.1c-8.8,6.8-13.8,17.1-13.8,28.3c0,11.1,5,21.4,13.8,28.3v5.7
	l-1.7,0l0,2.1C28.4,86.9,20.5,73.5,20.5,58.2L20.5,58.2z M40.6,78.8c0.2-0.4,0.2-0.9,0-1.4c-0.3-0.5-0.8-0.7-1.4-0.7
	c-0.4,0-0.8,0.1-1.1,0.2c0.2-1.1-0.1-2.4-0.8-2.9c-0.4-0.3-0.9-0.4-1.4-0.3c-0.4,0.1-0.7,0.3-0.9,0.7c-0.2,0.4-0.2,0.8,0,1.2
	c0.2,0.3,0.6,0.5,1,0.5h0l0-0.5c-0.2,0-0.4-0.1-0.6-0.3c-0.1-0.2-0.1-0.5,0-0.7c0.1-0.2,0.3-0.4,0.5-0.4c0.3-0.1,0.6,0,0.9,0.2
	c0.7,0.5,0.9,2.3,0.3,3.2c0,0-0.3,0.5-0.3,1.3c0,0.5,0.5,2.2,2.5,2.3h0c0.8,0,1.5-0.3,2-0.8c0.1-0.1,0.3-0.3,0.4-0.5v6.2
	c-7.2-5.7-11.7-13.6-12.9-22.6h0.1c0,0,3.5,3,3.8,3.2c0.2,0.2,0.5,0.5,0.5,1.3c0,0.4-0.2,0.6-0.3,0.8c-0.3,0.3-0.7,0.4-1,0.4
	c-0.3,0-1-0.1-1-0.8c0-0.3,0.1-0.5,0.2-0.6c0.1-0.1,0.2-0.1,0.4-0.1c0.3,0,0.4,0.4,0.4,0.5l0.5,0c0-0.4-0.3-1-0.9-1
	c-0.3,0-0.6,0.1-0.8,0.3c-0.2,0.2-0.4,0.6-0.4,1c0,1,1,1.4,1.6,1.4c0.5,0,1-0.2,1.3-0.5c0.3-0.3,0.5-0.7,0.5-1.2
	c0-0.9-0.4-1.3-0.7-1.6c-0.2-0.2-2.3-2-3.3-2.8h5.8l0,6.3h-1.6v0.5H42v6.4L37.6,72h-3.4v0.5h3.1l4.6,5.1V78c0,0.9-0.3,1.5-0.8,2
	c-0.3,0.3-0.9,0.7-1.6,0.7c0,0,0,0,0,0c-1.9,0-2-1.7-2-1.7c0-0.3,0-0.9,0.4-1.3c0.3-0.3,0.7-0.4,1.2-0.4c0.6,0,0.8,0.3,0.9,0.5
	c0.2,0.3,0.2,0.6,0,0.8c-0.1,0.2-0.4,0.3-0.7,0.3l0,0.5C40,79.4,40.3,79.2,40.6,78.8L40.6,78.8z M42,36.9V41c-1.9,1.4-4.5,5-5.6,9.9
	v-6.2c0.1,0.1,0.2,0.2,0.3,0.2c0.2,0,0.3-0.2,0.3-0.3c0-0.2-0.2-0.3-0.3-0.3c-0.1,0-0.2,0.1-0.3,0.2v-0.8c0.1,0.1,0.2,0.2,0.3,0.2
	c0.2,0,0.3-0.2,0.3-0.3c0-0.2-0.2-0.3-0.3-0.3c-0.1,0-0.2,0.1-0.3,0.2v-0.8c0.1,0.1,0.2,0.2,0.3,0.2c0.2,0,0.3-0.2,0.3-0.3
	c0-0.2-0.2-0.3-0.3-0.3c-0.1,0-0.2,0.1-0.3,0.2v-0.4h-0.1c0.1-0.1,0.2-0.2,0.2-0.3c0-0.2-0.2-0.3-0.3-0.3c-0.2,0-0.3,0.2-0.3,0.3
	c0,0.1,0.1,0.2,0.2,0.3h-0.1V42c-0.1-0.1-0.2-0.2-0.3-0.2c-0.2,0-0.3,0.2-0.3,0.3c0,0.2,0.2,0.3,0.3,0.3c0.1,0,0.3-0.1,0.3-0.2v0.9
	C35.8,43,35.6,43,35.5,43c-0.2,0-0.3,0.2-0.3,0.3c0,0.2,0.2,0.3,0.3,0.3c0.1,0,0.3-0.1,0.3-0.2v0.9c-0.1-0.1-0.2-0.2-0.3-0.2
	c-0.2,0-0.3,0.2-0.3,0.3c0,0.2,0.2,0.3,0.3,0.3c0.1,0,0.3-0.1,0.3-0.2c0,0,0,10.5,0,11.3l-3.1,0v-3.4c0.1,0.1,0.2,0.2,0.3,0.2
	c0.2,0,0.3-0.2,0.3-0.3c0-0.2-0.2-0.3-0.3-0.3c-0.1,0-0.2,0.1-0.3,0.2v-0.8c0.1,0.1,0.2,0.2,0.3,0.2c0.2,0,0.3-0.2,0.3-0.3
	c0-0.2-0.2-0.3-0.3-0.3c-0.1,0-0.2,0.1-0.3,0.2v-0.8c0.1,0.1,0.2,0.2,0.3,0.2c0.2,0,0.3-0.2,0.3-0.3c0-0.2-0.2-0.3-0.3-0.3
	c-0.1,0-0.2,0.1-0.3,0.2v-0.4h-0.1c0.1-0.1,0.2-0.2,0.2-0.3c0-0.2-0.2-0.3-0.3-0.3c-0.2,0-0.3,0.2-0.3,0.3c0,0.1,0.1,0.2,0.2,0.3
	h-0.1v0.4c-0.1-0.1-0.2-0.2-0.3-0.2c-0.2,0-0.3,0.2-0.3,0.3c0,0.2,0.2,0.3,0.3,0.3c0.1,0,0.3-0.1,0.3-0.2V51
	c-0.1-0.1-0.2-0.2-0.3-0.2c-0.2,0-0.3,0.2-0.3,0.3c0,0.2,0.2,0.3,0.3,0.3c0.1,0,0.3-0.1,0.3-0.2v0.9c-0.1-0.1-0.2-0.2-0.3-0.2
	c-0.2,0-0.3,0.2-0.3,0.3c0,0.2,0.2,0.3,0.3,0.3c0.1,0,0.3-0.1,0.3-0.2V56l-2.4,2.3l0.4,0.4l2.1-2V63H29c-0.2-1.5-0.3-3-0.3-4.5
	c0-10.8,4.8-20.8,13.3-27.6v5.4h-1.5v0.5L42,36.9L42,36.9z M39.6,52.4v17.4h-3.2l0-14c0-2.9,0.5-5.3,1.4-7.6c1.1,1.4,1.7,3,1.8,4.1
	C39.6,52.3,39.6,52.4,39.6,52.4L39.6,52.4z M38.1,47.6c0.5-1.2,1.1-2.3,1.7-3.2c0.6,1.1,1.3,2.2,1.8,3.6c-0.7,1-1.3,2.1-1.6,3
	C39.5,49.9,38.9,48.7,38.1,47.6z M40.1,52.4c0,0,0-0.1,0-0.2c0.1-1,0.8-2.6,1.9-4v21.6h-1.9V52.4L40.1,52.4z M40.2,43.8
	c0.6-0.8,1.2-1.5,1.8-2v5.6C41.5,46,40.8,44.8,40.2,43.8z M35.8,56.4l0,6.6h-3.1v-6.6C32.7,56.4,35.8,56.4,35.8,56.4z M40.9,93.1
	l4.6,0l0,1.6h-4.6L40.9,93.1z M41.2,95.1h7.3c-0.7,0.7-0.5,1.4-0.2,1.9c0.1,0.2,1.5,1.7,2.1,2.4C47.1,98.3,44,96.9,41.2,95.1z
	 M50.1,98.3c-0.7-0.8-1.4-1.5-1.4-1.6c-0.2-0.2-0.4-0.7,0.2-1.2c0.2-0.2,0.4-0.3,0.6-0.4h0.5l1.6,1.7c-0.3,0-0.6,0.1-0.9,0.3
	C50.3,97.5,50.1,97.9,50.1,98.3z M51,99.3c-0.2-0.2-0.4-0.5-0.4-0.9c0-0.3,0.2-0.6,0.4-0.8c0.2-0.2,0.5-0.3,0.8-0.2
	c0.3,0,0.5,0.2,0.5,0.4c0,0,0,0.1,0,0.1c0.2,0,0.4,0,0.5,0c0-0.1,0-0.2-0.1-0.3c-0.1-0.2-0.2-0.4-0.4-0.5l-1.8-2h4.5l-1.1,1l0.4,0.4
	l1.5-1.4h0v3.6c-0.1,0-0.3,0.1-0.4,0.1l-0.2,0.1c-0.3,0.1-0.5,0.2-0.8,0.3c-0.8,0.3-1.7,0.6-2.3,0.6C51.8,99.9,51.3,99.6,51,99.3z
	 M53.1,100.2c0.5-0.1,1-0.3,1.5-0.5c0.3-0.1,0.5-0.2,0.8-0.3l0.2-0.1c1-0.3,1.7-0.6,3.3-0.5c0.7,0,1.7,0.1,2.9,0.2
	c0.2,0.3,0.9,1.6,1.4,2.5C59.8,101.5,56.4,101.1,53.1,100.2z M63.7,101.2c-1.5-2.6-1.5-2.6-1.7-2.7c-0.3,0-0.6-0.1-0.9-0.1v-0.9h1.2
	l0-0.5h-1.3v-1.9h5.7c-0.3,0.3-0.8,0.7-0.9,0.8c-0.4,0.5-0.5,1,0,1.5c0.3,0.3,0.7,0.7,1,1c-0.4,0-0.9,0.1-1.4,0.2
	C65.4,98.6,65.4,98.6,63.7,101.2z M64.1,101.6c0.6-0.9,1.4-2.1,1.6-2.5c0.6-0.2,2.5-0.3,2.8-0.3c1.6,0,2.7,0.3,3.6,0.6l0.2,0.1
	c0.3,0.1,0.5,0.2,0.8,0.3c0.5,0.2,1,0.4,1.5,0.5C71.3,101.1,67.7,101.6,64.1,101.6z M76.9,99.3c-0.3,0.3-0.8,0.6-1.2,0.6
	c-0.6,0-1.5-0.3-2.3-0.6c-0.2-0.1-0.5-0.2-0.7-0.2l1.5-1.6c0.1-0.1,0.6-0.7,0.6-1.2c0-0.2-0.1-0.4-0.3-0.6c-0.2-0.2-0.4-0.3-0.6-0.5
	h3.3l-1.8,2c-0.2,0.1-0.3,0.3-0.4,0.5c0,0.1-0.1,0.2-0.1,0.3c0.2,0,0.4,0,0.5,0c0,0,0-0.1,0-0.2c0.1-0.2,0.3-0.4,0.5-0.4
	c0.3-0.1,0.6,0,0.8,0.2c0.2,0.2,0.4,0.5,0.4,0.8C77.3,98.8,77.1,99.1,76.9,99.3z M77.2,97.2c-0.3-0.2-0.6-0.3-0.9-0.3l1.6-1.7h0.5
	c0.2,0,0.4,0.2,0.6,0.4c0.5,0.5,0.3,1,0.2,1.2c-0.1,0.1-0.7,0.9-1.4,1.6C77.8,97.9,77.6,97.5,77.2,97.2z M77.6,99.3
	c0.6-0.7,1.9-2.1,2-2.3c0.3-0.5,0.4-1.2-0.2-1.9h7.1C83.8,96.9,80.8,98.3,77.6,99.3z M86.8,94.6h-4.6v-1.6h4.6V94.6z M87.4,94.6
	l0-2.1l-2,0v-5.3c9-6.7,14.4-17.5,14.4-28.7s-5.4-22-14.4-28.7v-3.7h1.3v-0.5h-1.3v-3.4h-0.5v2.2l-6.6-3.6v-3.1h-0.4v3.1L71,23.9
	v-3.8h0.6v-1.9h-1c-0.7-1.6-2.4-2.7-4.5-3.2c22.9,1.2,41.1,20.1,41.1,43.3C107.2,73.5,99.3,86.9,87.4,94.6L87.4,94.6z"/>
</svg>
